<svg width="757" height="124" viewBox="0 0 757 124" fill="none" xmlns="http://www.w3.org/2000/svg">
<mask id="path-1-inside-1_75_38790" fill="white">
<path d="M0 0H757V124H0V0Z"/>
</mask>
<path d="M757 123H0V125H757V123Z" fill="white" fill-opacity="0.02" mask="url(#path-1-inside-1_75_38790)"/>
<g clip-path="url(#clip0_75_38790)">
<g opacity="0.3">
<rect x="573.329" y="-3.12024" width="155.297" height="127.12" fill="url(#paint0_linear_75_38790)"/>
<rect x="729.132" y="-3.12061" width="155.297" height="127.12" fill="url(#paint1_linear_75_38790)"/>
<rect x="106.657" y="-3.12024" width="155.297" height="127.12" fill="url(#paint2_linear_75_38790)"/>
<rect x="262.514" y="-3.12061" width="155.297" height="127.12" fill="url(#paint3_linear_75_38790)"/>
<rect x="418.032" y="-3.12061" width="155.297" height="127.12" fill="url(#paint4_linear_75_38790)"/>
</g>
<path d="M74.5771 121.125C29.0123 125.145 13.6538 146.386 -6.21875 157.541V216.592H937.008V50.2621C937.008 43.1528 893.173 58.2614 854.679 56.671C816.184 55.0806 765.12 38.4516 717.702 24.6726C670.284 10.8936 632.354 24.6726 547.368 50.2621C462.382 75.8515 422.598 80.5263 351.483 75.8516C280.368 71.1769 247.909 105.833 197.118 121.125C146.327 136.417 120.142 117.105 74.5771 121.125Z" fill="url(#paint5_linear_75_38790)"/>
<path d="M74.5771 121.125C29.0123 125.145 13.6538 146.386 -6.21875 157.541V216.592H937.008V50.262C937.008 43.1527 893.173 58.2613 854.679 56.6709C816.184 55.0805 765.12 38.4515 717.702 24.6725C670.284 10.8935 632.354 24.6725 547.368 50.262C462.382 75.8515 422.598 80.5262 351.483 75.8515C280.368 71.1769 247.909 105.833 197.118 121.125C146.327 136.417 120.142 117.105 74.5771 121.125Z" stroke="url(#paint6_linear_75_38790)" stroke-opacity="0.03"/>
</g>
<defs>
<linearGradient id="paint0_linear_75_38790" x1="650.977" y1="-3.12024" x2="650.977" y2="124" gradientUnits="userSpaceOnUse">
<stop offset="0.046875" stop-color="white" stop-opacity="0"/>
<stop offset="1" stop-color="white" stop-opacity="0.02"/>
</linearGradient>
<linearGradient id="paint1_linear_75_38790" x1="806.781" y1="-3.12061" x2="806.781" y2="124" gradientUnits="userSpaceOnUse">
<stop offset="0.046875" stop-color="white" stop-opacity="0"/>
<stop offset="1" stop-color="white" stop-opacity="0.02"/>
</linearGradient>
<linearGradient id="paint2_linear_75_38790" x1="184.306" y1="-3.12024" x2="184.306" y2="124" gradientUnits="userSpaceOnUse">
<stop offset="0.046875" stop-color="white" stop-opacity="0"/>
<stop offset="1" stop-color="white" stop-opacity="0.02"/>
</linearGradient>
<linearGradient id="paint3_linear_75_38790" x1="340.163" y1="-3.12061" x2="340.163" y2="124" gradientUnits="userSpaceOnUse">
<stop offset="0.046875" stop-color="white" stop-opacity="0"/>
<stop offset="1" stop-color="white" stop-opacity="0.02"/>
</linearGradient>
<linearGradient id="paint4_linear_75_38790" x1="495.68" y1="-3.12061" x2="495.68" y2="124" gradientUnits="userSpaceOnUse">
<stop offset="0.046875" stop-color="white" stop-opacity="0"/>
<stop offset="1" stop-color="white" stop-opacity="0.02"/>
</linearGradient>
<linearGradient id="paint5_linear_75_38790" x1="439.819" y1="151.25" x2="441.873" y2="-7.04085" gradientUnits="userSpaceOnUse">
<stop stop-color="white" stop-opacity="0"/>
<stop offset="1" stop-color="white" stop-opacity="0.02"/>
</linearGradient>
<linearGradient id="paint6_linear_75_38790" x1="-6.21875" y1="117.91" x2="937.008" y2="117.91" gradientUnits="userSpaceOnUse">
<stop stop-color="white" stop-opacity="0.01"/>
<stop offset="1" stop-color="white"/>
</linearGradient>
<clipPath id="clip0_75_38790">
<rect width="757" height="124" fill="white"/>
</clipPath>
</defs>
</svg>
