<svg width="12" height="13" viewBox="0 0 12 13" fill="none" xmlns="http://www.w3.org/2000/svg">
<path d="M1.08203 4.14828V8.85228C1.08203 9.15468 1.24043 9.42828 1.50443 9.58188L5.57963 11.9339C5.83883 12.0827 6.16043 12.0827 6.41963 11.9339L10.4948 9.58188C10.754 9.43308 10.9172 9.15468 10.9172 8.85228V4.14828C10.9172 3.84588 10.7588 3.57228 10.4948 3.41868L6.41963 1.06668C6.16043 0.917878 5.83883 0.917878 5.57963 1.06668L1.50443 3.41868C1.24523 3.56748 1.08683 3.84588 1.08683 4.14828H1.08203Z" fill="#213147"/>
<path d="M6.88262 7.41197L6.30182 9.00557C6.28742 9.04877 6.28742 9.09677 6.30182 9.14477L7.30022 11.8856L8.45702 11.2184L7.06982 7.41197C7.03622 7.32557 6.91622 7.32557 6.88262 7.41197Z" fill="#12AAFF"/>
<path d="M8.05028 4.73375C8.01668 4.64735 7.89668 4.64735 7.86308 4.73375L7.28228 6.32735C7.26788 6.37055 7.26788 6.41855 7.28228 6.46655L8.91908 10.9545L10.0759 10.2873L8.05028 4.73855V4.73375Z" fill="#12AAFF"/>
<path d="M5.99809 1.244C6.02689 1.244 6.05569 1.2536 6.07969 1.268L10.4861 3.812C10.5389 3.8408 10.5677 3.8984 10.5677 3.956V9.044C10.5677 9.1016 10.5341 9.1592 10.4861 9.188L6.07969 11.732C6.05569 11.7464 6.02689 11.756 5.99809 11.756C5.96929 11.756 5.94049 11.7464 5.91649 11.732L1.51009 9.188C1.45729 9.1592 1.42849 9.1016 1.42849 9.044V3.9512C1.42849 3.8936 1.46209 3.836 1.51009 3.8072L5.91649 1.2632C5.94049 1.2488 5.96929 1.2392 5.99809 1.2392V1.244ZM5.99809 0.5C5.83969 0.5 5.68609 0.5384 5.54209 0.62L1.13569 3.164C0.852487 3.3272 0.679688 3.6248 0.679688 3.9512V9.0392C0.679688 9.3656 0.852487 9.6632 1.13569 9.8264L5.54209 12.3704C5.68129 12.452 5.83969 12.4904 5.99809 12.4904C6.15649 12.4904 6.31009 12.452 6.45409 12.3704L10.8605 9.8264C11.1437 9.6632 11.3165 9.3656 11.3165 9.0392V3.9512C11.3165 3.6248 11.1437 3.3272 10.8605 3.164L6.44929 0.62C6.31009 0.5384 6.15169 0.5 5.99329 0.5H5.99809Z" fill="#9DCCED"/>
<path d="M3.08008 10.9593L3.48808 9.8457L4.30408 10.5225L3.54088 11.2233L3.08008 10.9593Z" fill="#213147"/>
<path d="M5.62267 3.59171H4.50427C4.42267 3.59171 4.34587 3.64451 4.31707 3.72131L1.92188 10.2877L3.07867 10.9549L5.71867 3.72131C5.74267 3.65411 5.69467 3.58691 5.62747 3.58691L5.62267 3.59171Z" fill="white"/>
<path d="M7.58066 3.59171H6.46226C6.38066 3.59171 6.30386 3.64451 6.27506 3.72131L3.53906 11.2189L4.69586 11.8861L7.67186 3.72131C7.69586 3.65411 7.64786 3.58691 7.58066 3.58691V3.59171Z" fill="white"/>
</svg>
