<svg width="16" height="16" viewBox="0 0 16 16" fill="none" xmlns="http://www.w3.org/2000/svg">
<path d="M14.29 12.2129C12.883 14.2812 10.5104 15.6395 7.82031 15.6396C5.13018 15.6396 2.75771 14.2811 1.35059 12.2129H14.29ZM15.2812 5.47461C15.5138 6.2151 15.6396 7.00309 15.6396 7.82031C15.6396 8.70646 15.4904 9.55745 15.2188 10.3516H0.420898C0.149277 9.55748 3.46328e-05 8.70642 0 7.82031C0 7.00312 0.125882 6.21507 0.358398 5.47461H15.2812ZM7.82031 0C10.5895 0.000108231 13.0208 1.44076 14.4102 3.6123H1.23047C2.61993 1.44084 5.05107 0 7.82031 0Z" fill="#D7E3EF"/>
</svg>
