<svg width="56" height="56" viewBox="0 0 56 56" fill="none" xmlns="http://www.w3.org/2000/svg">
<circle cx="28" cy="28" r="28" fill="#F7931A"/>
<path fill-rule="evenodd" clip-rule="evenodd" d="M48.59 41.9845C44.1114 48.5664 36.5596 52.8891 27.9983 52.8891C19.4369 52.8891 11.8852 48.5664 7.40658 41.9845H48.59ZM51.5537 36.0586H4.44287C3.57846 33.5312 3.10938 30.8205 3.10938 28.0002C3.10938 25.3995 3.50828 22.8919 4.24824 20.5353H51.7483C52.4883 22.8919 52.8872 25.3995 52.8872 28.0002C52.8872 30.8205 52.4181 33.5312 51.5537 36.0586ZM27.9983 3.11133C19.1822 3.11133 11.4367 7.69509 7.01502 14.6094H48.9815C44.5598 7.69509 36.8144 3.11133 27.9983 3.11133Z" fill="#FBCC93"/>
<path d="M35.0993 16.8079L35.0116 17.1623L35.3565 17.2819C37.364 17.9784 39.0495 18.8326 40.1602 19.9604C41.2513 21.0682 41.8013 22.4518 41.5292 24.2835L41.5291 24.2842C41.3276 25.6568 40.8547 26.6424 40.2098 27.3394C39.5647 28.0367 38.7219 28.4728 37.7339 28.7028L36.6859 28.9466L37.6387 29.4466C39.0337 30.1785 40.0346 31.0789 40.5372 32.2352C41.0376 33.3866 41.0737 34.8612 40.3973 36.8065L40.3973 36.8065C39.5677 39.1938 38.1929 40.4435 36.3968 41.0001C34.5643 41.5679 32.2475 41.4292 29.5231 40.9099L29.1511 40.839L29.06 41.2065L27.8266 46.1817L25.3921 45.5704L26.6078 40.6648L26.7037 40.2778L26.317 40.1806C25.4865 39.9719 24.6388 39.7525 23.7662 39.513L23.3705 39.4045L23.272 39.8028L22.0532 44.7315L19.6214 44.1203L20.8547 39.1325L20.9498 38.7481L20.5663 38.6492C20.2821 38.5758 19.9938 38.5002 19.7026 38.4237C19.2325 38.3004 18.7549 38.175 18.2745 38.0543C18.2745 38.0543 18.2745 38.0543 18.2745 38.0543L14.5512 37.1186L15.8231 34.164L15.8589 34.1735C16.0806 34.2323 16.3761 34.3102 16.6707 34.3867C16.9648 34.4631 17.26 34.5386 17.4803 34.5922C17.5897 34.6188 17.6847 34.641 17.7531 34.6552C17.7851 34.6619 17.821 34.6689 17.8521 34.6731L17.853 34.6732C17.8579 34.6738 17.8688 34.6753 17.8834 34.6764C18.4197 34.7961 18.8529 34.686 19.1788 34.4489C19.4981 34.2165 19.6755 33.8908 19.7695 33.6556L19.7797 33.63L19.7864 33.6032L21.8864 25.123L21.8633 25.1173L21.8706 25.0946L21.8919 25.0999L21.969 24.7882L21.9846 24.7396C21.9835 24.7392 21.9825 24.7388 21.9814 24.7383L23.3901 19.0462L23.399 19.0101L23.4011 18.973C23.4237 18.5789 23.3701 18.0986 23.0945 17.6612C22.821 17.2271 22.3594 16.8837 21.6616 16.6962C21.6503 16.6911 21.6418 16.6876 21.6375 16.6859L21.6367 16.6856C21.6047 16.6727 21.5676 16.6609 21.5358 16.6513C21.4675 16.6305 21.3722 16.6046 21.2631 16.5762C21.043 16.5189 20.7469 16.4462 20.4517 16.3752C20.166 16.3065 19.879 16.2388 19.6587 16.1872L20.3193 13.516L23.9818 14.4371L23.978 14.454L24.3553 14.5485C25.0254 14.7163 25.715 14.8756 26.4136 15.0359L26.7968 15.1238L26.8913 14.7421L28.1101 9.81968L30.5446 10.431L29.3508 15.2519L29.2527 15.6479L29.6506 15.7381C30.5073 15.9324 31.3621 16.1351 32.215 16.3462L32.6032 16.4423L32.6993 16.054L33.8834 11.2697L36.3188 11.8811L35.0993 16.8079ZM24.3148 35.9094L24.2189 36.2966L24.6058 36.3935C24.7771 36.4365 24.9804 36.4906 25.2098 36.5518C26.3979 36.8685 28.2869 37.372 30.0681 37.4653C31.1324 37.5211 32.205 37.4346 33.0907 37.0454C33.9973 36.6471 34.6946 35.9356 34.975 34.8006C35.2651 33.6292 34.9915 32.6514 34.3776 31.8604C33.7779 31.0877 32.8676 30.5093 31.8981 30.0661C30.3481 29.3575 28.5258 28.9458 27.3249 28.6744C27.0292 28.6076 26.7711 28.5493 26.5641 28.4972L26.1747 28.3991L26.0782 28.7889L24.3148 35.9094ZM35.9682 24.3814L35.9683 24.3813C36.2317 23.3167 36.022 22.4289 35.5106 21.71C35.0114 21.0083 34.2445 20.4938 33.4312 20.107C32.133 19.4896 30.5973 19.1477 29.5967 18.925C29.3518 18.8705 29.1389 18.8231 28.9694 18.7805L28.5801 18.6828L28.4837 19.0724L26.8849 25.5304L26.7891 25.9174L27.1758 26.0145C27.3186 26.0504 27.4891 26.0963 27.6824 26.1483C28.671 26.4145 30.2533 26.8405 31.752 26.8961C32.6511 26.9294 33.5668 26.8329 34.3308 26.4591C35.114 26.0759 35.7127 25.4122 35.9682 24.3814Z" fill="white" stroke="#804B0C" stroke-width="0.8"/>
</svg>
