<svg width="56" height="56" viewBox="0 0 56 56" fill="none" xmlns="http://www.w3.org/2000/svg">
<circle cx="28.0002" cy="28.0002" r="24.8889" fill="#B88AF8"/>
<circle cx="28" cy="28" r="28" fill="#F7931A"/>
<circle cx="27.9983" cy="28.0002" r="24.8889" fill="#F7931A"/>
<path fill-rule="evenodd" clip-rule="evenodd" d="M48.588 41.9845C44.1094 48.5664 36.5577 52.8891 27.9963 52.8891C19.435 52.8891 11.8832 48.5664 7.40462 41.9845H48.588ZM51.5517 36.0586H4.44092C3.57651 33.5312 3.10742 30.8205 3.10742 28.0002C3.10742 25.3995 3.50633 22.8919 4.24629 20.5353H51.7463C52.4863 22.8919 52.8852 25.3995 52.8852 28.0002C52.8852 30.8205 52.4161 33.5312 51.5517 36.0586ZM27.9963 3.11133C19.1802 3.11133 11.4347 7.69509 7.01307 14.6094H48.9796C44.5579 7.69509 36.8124 3.11133 27.9963 3.11133Z" fill="white"/>
<circle cx="27.9985" cy="28.0004" r="21.7778" fill="#F9B561"/>
<path d="M40.2132 21.063L40.2133 21.0634C40.357 22.4673 40.1376 23.5703 39.6661 24.4359C39.1946 25.3016 38.4597 25.9504 37.5373 26.4264L36.9397 26.7348L37.5937 26.8917C39.1443 27.2636 40.372 27.9037 41.1713 28.9384C41.9686 29.9703 42.3685 31.4323 42.1877 33.509L42.1877 33.509C41.9654 36.069 40.9166 37.6631 39.2668 38.6707C37.5967 39.6908 35.2853 40.1259 32.5116 40.291L32.2754 40.3051L32.2765 40.5417L32.3018 45.8178L29.4918 45.8229L29.4663 40.6194L29.4651 40.3702L29.2159 40.3707C28.3589 40.3721 27.4822 40.3673 26.5761 40.3491L26.3197 40.344L26.3211 40.6004L26.3491 45.8281L23.5417 45.8326L23.5132 40.5452L23.5118 40.2977L23.2643 40.2965C22.9693 40.2951 22.6707 40.2925 22.3695 40.2898C21.8843 40.2855 21.3923 40.2811 20.8976 40.282L16.8823 40.2884L17.4389 36.8102L17.6054 36.8122C17.8346 36.8148 18.1398 36.8179 18.4439 36.8198C18.7476 36.8217 19.0513 36.8225 19.2768 36.8204C19.3891 36.8194 19.4846 36.8176 19.5518 36.8148C19.584 36.8134 19.6159 36.8116 19.6411 36.8086L19.6414 36.8086C19.6469 36.8079 19.659 36.8065 19.6739 36.8035C20.1893 36.7918 20.5443 36.5955 20.7743 36.3189C21.0017 36.0456 21.0875 35.7177 21.1191 35.4811L21.1213 35.464L21.1213 35.4468L21.0784 26.961L21.1776 26.9607L21.209 26.4627C21.1627 26.4567 21.1181 26.4521 21.0755 26.4486L21.0444 20.4506L21.0443 20.4273L21.0399 20.4045C20.9686 20.0356 20.809 19.616 20.4647 19.2882C20.1229 18.9629 19.6254 18.7529 18.9264 18.7454C18.9123 18.7423 18.9011 18.7407 18.8957 18.74L18.8954 18.74C18.8682 18.7363 18.8348 18.7342 18.8023 18.7326C18.7341 18.7295 18.6378 18.7277 18.5254 18.7269C18.2995 18.7253 17.9957 18.7275 17.6923 18.7311C17.3886 18.7346 17.0837 18.7396 16.8548 18.7437L16.7266 18.7461L16.7101 15.6919L20.7829 15.6861L20.7835 15.7033L21.0265 15.7027C21.7157 15.7011 22.4219 15.6864 23.1385 15.6704L23.3842 15.6649L23.383 15.4192L23.3564 10.1976L26.1664 10.1926L26.1923 15.3085L26.1936 15.5635L26.4485 15.5572C27.3277 15.5354 28.2071 15.5222 29.0866 15.5177L29.3366 15.5164L29.3353 15.2664L29.309 10.1873L32.1199 10.1821L32.1469 15.407L32.1481 15.6352L32.3754 15.6548C34.5002 15.8383 36.3713 16.2556 37.7542 17.0944C39.1222 17.9241 40.0228 19.1716 40.2132 21.063ZM26.377 36.5702L26.3782 36.8196L26.6275 36.819C26.807 36.8186 27.0196 36.8212 27.2588 36.8243C28.4899 36.8398 30.4247 36.8641 32.1571 36.5211C33.1926 36.3161 34.1848 35.9752 34.9213 35.4014C35.6691 34.819 36.1459 34.0008 36.1396 32.8823C36.1337 31.7235 35.6518 30.8851 34.8969 30.2957C34.1536 29.7153 33.1566 29.3837 32.1185 29.1938C30.4595 28.8902 28.6147 28.9372 27.3827 28.9686C27.0764 28.9764 26.808 28.9833 26.5898 28.9835L26.3388 28.9838L26.34 29.2348L26.377 36.5702ZM34.5469 22.5376L34.5469 22.5375C34.5414 21.484 34.1393 20.7164 33.5008 20.1735C32.8724 19.6392 32.0312 19.3356 31.1597 19.1625C29.7689 18.8861 28.2212 18.9304 27.195 18.9597C26.9406 18.967 26.7183 18.9734 26.5383 18.9737L26.2875 18.9742L26.2888 19.225L26.3229 25.8779L26.3241 26.1271L26.5733 26.1267C26.7237 26.1264 26.9029 26.1291 27.1051 26.1321C28.1306 26.1475 29.7472 26.1719 31.1949 25.8622C32.0635 25.6763 32.9 25.3653 33.5221 24.8383C34.1544 24.3026 34.5518 23.5541 34.5469 22.5376Z" fill="white" stroke="#E28D28" stroke-width="0.5"/>
</svg>
