<svg width="200" height="124" viewBox="0 0 200 124" fill="none" xmlns="http://www.w3.org/2000/svg">
<g opacity="0.7" clip-path="url(#clip0_9_18677)">
<path d="M197.006 124.192C183.649 177.764 129.383 210.367 75.799 197.008C22.2371 183.652 -10.3694 129.389 2.99372 75.8217C16.3451 22.2439 70.6109 -10.3614 124.179 2.99429C177.759 16.35 210.364 70.619 197.005 124.193L197.006 124.192H197.006Z" fill="#F7931A"/>
<path d="M144.1 85.7528C146.091 72.445 135.958 65.2915 122.102 60.5194L126.597 42.4928L115.623 39.7585L111.247 57.3105C108.362 56.591 105.399 55.9131 102.454 55.241L106.862 37.5732L95.8939 34.8389L91.3965 52.8596C89.009 52.3161 86.664 51.7789 84.3889 51.2129L84.4016 51.1562L69.2674 47.3773L66.3481 59.0976C66.3481 59.0976 74.4903 60.9638 74.3187 61.0786C78.7628 62.1877 79.5665 65.1292 79.433 67.4608L74.3128 87.9973C74.6188 88.075 75.0158 88.1875 75.4538 88.3634C75.0876 88.2725 74.698 88.1733 74.2938 88.0765L67.117 116.845C66.5739 118.195 65.1954 120.221 62.0883 119.452C62.1982 119.611 54.1118 117.462 54.1118 117.462L48.6631 130.023L62.9447 133.582C65.6016 134.249 68.2052 134.946 70.7692 135.601L66.2278 153.834L77.1897 156.569L81.6871 138.529C84.6817 139.342 87.5879 140.092 90.433 140.798L85.9508 158.753L96.9258 161.487L101.467 143.288C120.181 146.83 134.252 145.402 140.175 128.477C144.948 114.85 139.937 106.991 130.092 101.865C137.263 100.212 142.664 95.4959 144.104 85.7543L144.101 85.7518L144.1 85.7528ZM119.026 120.91C115.634 134.536 92.689 127.17 85.2498 125.323L91.2763 101.167C98.715 103.024 122.571 106.698 119.027 120.91H119.026ZM122.42 85.5553C119.326 97.9501 100.228 91.653 94.0333 90.1089L99.4972 68.2008C105.692 69.7449 125.643 72.6268 122.421 85.5553H122.42Z" fill="white"/>
</g>
<defs>
<clipPath id="clip0_9_18677">
<rect width="200" height="200" fill="white"/>
</clipPath>
</defs>
</svg>
