<svg width="200" height="200" viewBox="0 0 200 200" fill="none" xmlns="http://www.w3.org/2000/svg">
<g opacity="0.7" clip-path="url(#clip0_9_18677)">
<path d="M197.006 124.192C183.649 177.764 129.383 210.367 75.799 197.008C22.2371 183.652 -10.3694 129.389 2.99372 75.8217C16.3451 22.2439 70.6109 -10.3614 124.179 2.99429C177.759 16.35 210.364 70.619 197.005 124.193L197.006 124.192H197.006Z" fill="#F7931A"/>
<path d="M144.1 85.7518C146.091 72.444 135.958 65.2905 122.102 60.5185L126.597 42.4919L115.623 39.7576L111.247 57.3096C108.362 56.5901 105.399 55.9121 102.454 55.24L106.862 37.5722L95.8939 34.8379L91.3965 52.8586C89.009 52.3151 86.664 51.7779 84.3889 51.2119L84.4016 51.1552L69.2674 47.3764L66.3481 59.0966C66.3481 59.0966 74.4903 60.9628 74.3187 61.0776C78.7628 62.1867 79.5665 65.1283 79.433 67.4598L74.3128 87.9963C74.6188 88.0741 75.0158 88.1865 75.4538 88.3624C75.0876 88.2715 74.698 88.1723 74.2938 88.0755L67.117 116.844C66.5739 118.194 65.1954 120.22 62.0883 119.451C62.1982 119.61 54.1118 117.461 54.1118 117.461L48.6631 130.022L62.9447 133.581C65.6016 134.248 68.2052 134.945 70.7692 135.6L66.2278 153.834L77.1897 156.568L81.6871 138.528C84.6817 139.341 87.5879 140.091 90.433 140.797L85.9508 158.752L96.9258 161.487L101.467 143.287C120.181 146.829 134.252 145.401 140.175 128.476C144.948 114.85 139.937 106.99 130.092 101.864C137.263 100.211 142.664 95.4949 144.104 85.7533L144.101 85.7508L144.1 85.7518ZM119.026 120.909C115.634 134.535 92.689 127.169 85.2498 125.322L91.2763 101.166C98.715 103.023 122.571 106.697 119.027 120.909H119.026ZM122.42 85.5543C119.326 97.9491 100.228 91.652 94.0333 90.1079L99.4972 68.1998C105.692 69.7439 125.643 72.6258 122.421 85.5543H122.42Z" fill="white"/>
</g>
<defs>
<clipPath id="clip0_9_18677">
<rect width="200" height="200" fill="white"/>
</clipPath>
</defs>
</svg>
