<svg width="200" height="200" viewBox="0 0 200 200" fill="none" xmlns="http://www.w3.org/2000/svg">
<g opacity="0.7" clip-path="url(#clip0_9_18652)">
<path d="M100 200C155.417 200 200 155.417 200 100C200 44.583 155.417 0 100 0C44.583 0 0 44.583 0 100C0 155.417 44.583 200 100 200Z" fill="#B88AF8"/>
<path d="M119.995 82.5H129.995C129.995 68.315 116.22 61.845 104.995 60.355V50H94.9951V60.355C83.7701 61.845 69.9951 68.315 69.9951 82.5C69.9951 96.03 83.3251 103.065 94.9951 104.65V129.5C87.7551 128.245 79.9951 124.38 79.9951 117.5H69.9951C69.9951 130.445 82.1201 138.095 94.9951 139.68V150H104.995V139.65C116.22 138.16 129.995 131.685 129.995 117.5C129.995 103.315 116.22 96.845 104.995 95.355V70.5C111.645 71.695 119.995 75.205 119.995 82.5ZM79.9951 82.5C79.9951 75.205 88.3451 71.695 94.9951 70.5V94.495C88.1401 93.23 79.9951 89.485 79.9951 82.5ZM119.995 117.5C119.995 124.795 111.645 128.305 104.995 129.5V105.5C111.645 106.695 119.995 110.205 119.995 117.5Z" fill="white"/>
</g>
<defs>
<clipPath id="clip0_9_18652">
<rect width="200" height="200" fill="white"/>
</clipPath>
</defs>
</svg>
