<svg width="9" height="11" viewBox="0 0 9 11" fill="none" xmlns="http://www.w3.org/2000/svg">
<path opacity="0.8" fill-rule="evenodd" clip-rule="evenodd" d="M8.85621 7.04738C8.85621 8.71545 7.48369 10.0677 5.7906 10.0677H0V8.05415H5.7906C6.35496 8.05415 6.81247 7.6034 6.81247 7.04738C6.81247 6.49136 6.35496 6.04061 5.7906 6.04061H3.74686V4.02707H5.7906C6.35496 4.02707 6.81247 3.57633 6.81247 3.02031C6.81247 2.46428 6.35496 2.01354 5.7906 2.01354H0V0H5.7906C7.48369 0 8.85621 1.35224 8.85621 3.02031C8.85621 3.79386 8.56104 4.49949 8.07561 5.03384C8.56104 5.56819 8.85621 6.27383 8.85621 7.04738Z" fill="#FE815F"/>
<path opacity="0.12" d="M0 8.05415H4.97352C3.91708 9.27682 2.2351 10.0677 0.340623 10.0677C0.226278 10.0677 0.112706 10.0648 0 10.0591V8.05415ZM6.01539 6.04061H4.08748V4.02707H6.01539C6.09135 4.35237 6.13122 4.68906 6.13122 5.03384C6.13122 5.37863 6.09135 5.71531 6.01539 6.04061ZM4.97352 2.01354H0V0.00856451C0.112706 0.00288116 0.226278 0 0.340623 0C2.2351 0 3.91708 0.79087 4.97352 2.01354Z" fill="black"/>
<path d="M0 0C2.82182 0 5.10935 2.25373 5.10935 5.03384C5.10935 7.81396 2.82182 10.0677 0 10.0677V8.05415C1.69309 8.05415 3.06561 6.70191 3.06561 5.03384C3.06561 3.36577 1.69309 2.01354 0 2.01354V0Z" fill="#FF6238"/>
</svg>
