<svg width="57" height="56" viewBox="0 0 57 56" fill="none" xmlns="http://www.w3.org/2000/svg">
<path d="M51.667 43.7314C46.6286 51.1369 38.1332 56.0009 28.501 56.001C18.8686 56.001 10.3724 51.1371 5.33398 43.7314H51.667ZM55.2188 19.6006C56.0516 22.2524 56.501 25.0743 56.501 28.001C56.5009 31.1734 55.9732 34.2224 55.001 37.0654H2.00098C1.02869 34.2224 0.500038 31.1735 0.5 28.001C0.5 25.0743 0.949359 22.2524 1.78223 19.6006H55.2188ZM28.501 0C38.4187 0.000120318 47.1319 5.15654 52.1064 12.9346H4.89453C9.86912 5.15637 18.5831 0 28.501 0Z" fill="#D7E3EF"/>
</svg>
