<svg width="56" height="56" viewBox="0 0 56 56" fill="none" xmlns="http://www.w3.org/2000/svg">
<circle cx="27.996" cy="27.998" r="24.8866" fill="#B88AF8"/>
<circle cx="27.9982" cy="27.9982" r="27.9982" fill="#627EEA"/>
<circle cx="27.996" cy="27.998" r="24.8866" fill="#627EEA"/>
<path fill-rule="evenodd" clip-rule="evenodd" d="M48.5863 41.9802C44.1082 48.562 36.5569 52.8846 27.996 52.8846C19.4351 52.8846 11.8838 48.562 7.40568 41.9802H48.5863ZM51.5496 36.0547H4.44244C3.57831 33.5278 3.10938 30.8176 3.10938 27.998C3.10938 25.3972 3.50833 22.8895 4.24838 20.533H51.7436C52.4837 22.8895 52.8826 25.3972 52.8826 27.998C52.8826 30.8176 52.4137 33.5278 51.5496 36.0547ZM27.996 3.11133C19.1811 3.11133 11.4366 7.69427 7.01525 14.6074H48.9768C44.5554 7.69427 36.8109 3.11133 27.996 3.11133Z" fill="white"/>
<circle cx="27.9964" cy="27.9984" r="21.7757" fill="#93A6F1"/>
<path d="M39.0878 28.2092L28.048 23.0732V9.47436L39.0878 28.2092Z" fill="white" stroke="#8198EE" stroke-width="0.1"/>
<path d="M27.9413 23.0732L16.9001 28.2092L27.9413 9.47433V23.0732Z" fill="white" stroke="#8198EE" stroke-width="0.1"/>
<path d="M39.0453 30.6659L28.048 46.5065V37.308L39.0453 30.6659Z" fill="white" stroke="#8198EE" stroke-width="0.1"/>
<path d="M16.95 30.6658L27.9413 37.3064V46.5064L16.95 30.6658Z" fill="white" stroke="#8198EE" stroke-width="0.1"/>
<path d="M28.048 23.1858L39.1053 28.3269L28.048 35.0112V23.1858Z" fill="white" stroke="#8198EE" stroke-width="0.1"/>
<path d="M27.9403 23.1858V35.0112L16.8816 28.3269L27.9403 23.1858Z" fill="white" stroke="#8198EE" stroke-width="0.1"/>
</svg>
