<svg width="56" height="56" viewBox="0 0 56 56" fill="none" xmlns="http://www.w3.org/2000/svg">
<circle cx="28" cy="28" r="28" fill="#627EEA"/>
<path fill-rule="evenodd" clip-rule="evenodd" d="M48.5932 41.9845C44.1148 48.5675 36.5624 52.8911 28.0002 52.8911C19.438 52.8911 11.8856 48.5675 7.4072 41.9845H48.5932ZM51.5563 36.0586H4.44415C3.58017 33.5318 3.11133 30.8217 3.11133 28.0022C3.11133 25.4007 3.51045 22.8924 4.25081 20.5353H51.7496C52.49 22.8924 52.8891 25.4007 52.8891 28.0022C52.8891 30.8217 52.4203 33.5318 51.5563 36.0586ZM28.0002 3.11328C19.185 3.11328 11.4401 7.69618 7.01823 14.6094H48.9822C44.5603 7.69618 36.8155 3.11328 28.0002 3.11328Z" fill="#93A6F1"/>
<path d="M38.301 32.0849L29.7657 23.4003L34.5391 10.6658L38.301 32.0849Z" fill="#999999" stroke="#280F4B" stroke-width="0.1"/>
<path d="M29.6673 23.3646L17.5251 24.2986L34.4407 10.6301L29.6673 23.3646Z" fill="white" stroke="#280F4B" stroke-width="0.1"/>
<path d="M37.4009 34.371L21.5423 45.3446L24.7711 36.7308L37.4009 34.371Z" fill="#999999" stroke="#280F4B" stroke-width="0.1"/>
<path d="M16.7114 26.6171L24.6733 36.6937L21.444 45.3089L16.7114 26.6171Z" fill="white" stroke="#280F4B" stroke-width="0.1"/>
<path d="M29.7283 23.5109L38.2789 32.2072L25.5771 34.5856L29.7283 23.5109Z" fill="#333333" stroke="#280F4B" stroke-width="0.1"/>
<path d="M29.6279 23.4693L25.4767 34.5441L17.4664 24.402L29.6279 23.4693Z" fill="#999999" stroke="#280F4B" stroke-width="0.1"/>
</svg>
