<svg width="16" height="16" viewBox="0 0 16 16" fill="none" xmlns="http://www.w3.org/2000/svg">
<g clip-path="url(#clip0_170_37093)">
<rect width="16" height="16" rx="8" fill="white"/>
<rect width="16" height="16" rx="8" fill="#4CAF50"/>
<g clip-path="url(#clip1_170_37093)">
<path d="M8 9.25C7.8125 9.25 7.6875 9.125 7.6875 8.9375C7.71875 8.53125 7.9375 8.1875 8.25 7.9375C8.4375 7.75 8.625 7.5625 8.625 7.375C8.625 7.03125 8.34375 6.75 8 6.75C7.65625 6.75 7.375 7.03125 7.375 7.375C7.375 7.5625 7.25 7.6875 7.0625 7.6875C6.875 7.6875 6.75 7.5625 6.75 7.375C6.75 6.6875 7.3125 6.125 8 6.125C8.6875 6.125 9.25 6.6875 9.25 7.375C9.21875 7.78125 9 8.125 8.6875 8.375C8.5 8.5625 8.3125 8.75 8.3125 8.9375C8.3125 9.125 8.1875 9.25 8 9.25Z" fill="white"/>
<path d="M8 10.1875C8.17259 10.1875 8.3125 10.0476 8.3125 9.875C8.3125 9.70241 8.17259 9.5625 8 9.5625C7.82741 9.5625 7.6875 9.70241 7.6875 9.875C7.6875 10.0476 7.82741 10.1875 8 10.1875Z" fill="white"/>
<path d="M4.37524 12C4.28149 11.9375 4.25024 11.8125 4.25024 11.6875L4.53149 10.0938C3.37524 8.18753 4.00024 5.68753 5.90649 4.56253C7.81274 3.43753 10.3127 4.03128 11.469 5.93753C12.6252 7.84378 12.0002 10.3438 10.094 11.5C8.84399 12.25 7.25024 12.2813 6.00024 11.5313L4.71899 12.0625C4.56274 12.0938 4.46899 12.0625 4.37524 12ZM6.00024 10.875C6.06274 10.875 6.12524 10.9063 6.15649 10.9375C7.78149 11.9688 9.90649 11.4688 10.9065 9.87503C11.9065 8.28128 11.4377 6.12503 9.84399 5.12503C8.25024 4.12503 6.12524 4.53128 5.09399 6.15628C4.37524 7.28128 4.37524 8.75003 5.09399 9.87503C5.12524 9.93753 5.15649 10.0313 5.12524 10.0938L4.93774 11.25L5.84399 10.875H6.00024Z" fill="white"/>
</g>
</g>
<defs>
<clipPath id="clip0_170_37093">
<rect width="16" height="16" rx="8" fill="white"/>
</clipPath>
<clipPath id="clip1_170_37093">
<rect width="10" height="10" fill="white" transform="translate(3 3)"/>
</clipPath>
</defs>
</svg>
