<svg width="16" height="16" viewBox="0 0 16 16" fill="none" xmlns="http://www.w3.org/2000/svg">
<g clip-path="url(#clip0_9_3466)">
<path d="M15.7604 9.93536C14.6918 14.2211 10.3505 16.8293 6.06379 15.7606C1.77884 14.6922 -0.829676 10.3511 0.239371 6.0657C1.30748 1.77947 5.64874 -0.828948 9.93416 0.239509C14.2206 1.30797 16.829 5.64948 15.7603 9.93544L15.7603 9.93536H15.7604Z" fill="#F7931A"/>
<path d="M11.5281 6.8601C11.6873 5.79548 10.8767 5.2232 9.76821 4.84143L10.1278 3.39931L9.24984 3.18056L8.89979 4.58472C8.66897 4.52716 8.43194 4.47292 8.19636 4.41916L8.54895 3.00573L7.67153 2.78699L7.31174 4.22865C7.12074 4.18516 6.93314 4.14219 6.75113 4.09691L6.75215 4.09237L5.54142 3.79006L5.30786 4.72768C5.30786 4.72768 5.95924 4.87698 5.94551 4.88617C6.30104 4.97489 6.36534 5.21022 6.35466 5.39674L5.94505 7.03966C5.96953 7.04588 6.00128 7.05487 6.03632 7.06895C6.00703 7.06168 5.97586 7.05374 5.94352 7.046L5.36938 9.3475C5.32593 9.4555 5.21565 9.61758 4.96708 9.55604C4.97588 9.56878 4.32896 9.39681 4.32896 9.39681L3.89307 10.4017L5.0356 10.6865C5.24815 10.7398 5.45643 10.7955 5.66155 10.848L5.29824 12.3066L6.17519 12.5254L6.53498 11.0822C6.77456 11.1472 7.00705 11.2072 7.23466 11.2638L6.87608 12.7001L7.75409 12.9189L8.11736 11.4629C9.61448 11.7462 10.7402 11.632 11.214 10.278C11.5958 9.18792 11.195 8.55914 10.4074 8.1491C10.9811 8.01681 11.4132 7.63955 11.5284 6.86022L11.5281 6.86002L11.5281 6.8601ZM9.52211 9.67264C9.25078 10.7628 7.41514 10.1735 6.82 10.0257L7.30212 8.09322C7.89722 8.24178 9.80568 8.53575 9.52215 9.67264H9.52211ZM9.79363 6.8443C9.54612 7.83588 8.0183 7.33212 7.52269 7.20859L7.95979 5.45594C8.45541 5.57947 10.0515 5.81002 9.79371 6.8443H9.79363Z" fill="white"/>
</g>
<defs>
<clipPath id="clip0_9_3466">
<rect width="16" height="16" fill="white"/>
</clipPath>
</defs>
</svg>
