<svg width="16" height="16" viewBox="0 0 16 16" fill="none" xmlns="http://www.w3.org/2000/svg">
<g clip-path="url(#clip0_9_3456)">
<path d="M8 16C12.4334 16 16 12.4334 16 8C16 3.56664 12.4334 0 8 0C3.56664 0 0 3.56664 0 8C0 12.4334 3.56664 16 8 16Z" fill="white"/>
<path d="M9.66618 6.54171H10.4995C10.4995 5.35962 9.35159 4.82046 8.41618 4.69629V3.83337H7.58284V4.69629C6.64743 4.82046 5.49951 5.35962 5.49951 6.54171C5.49951 7.66921 6.61034 8.25546 7.58284 8.38754V10.4584C6.97951 10.3538 6.33285 10.0317 6.33285 9.45837H5.49951C5.49951 10.5371 6.50993 11.1746 7.58284 11.3067V12.1667H8.41618V11.3042C9.35159 11.18 10.4995 10.6405 10.4995 9.45837C10.4995 8.27629 9.35159 7.73712 8.41618 7.61296V5.54171C8.97034 5.64129 9.66618 5.93379 9.66618 6.54171ZM6.33285 6.54171C6.33285 5.93379 7.02868 5.64129 7.58284 5.54171V7.54129C7.01159 7.43587 6.33285 7.12379 6.33285 6.54171ZM9.66618 9.45837C9.66618 10.0663 8.97034 10.3588 8.41618 10.4584V8.45837C8.97034 8.55796 9.66618 8.85046 9.66618 9.45837Z" fill="#0B4336"/>
</g>
<defs>
<clipPath id="clip0_9_3456">
<rect width="16" height="16" fill="white"/>
</clipPath>
</defs>
</svg>
