<svg width="16" height="16" viewBox="0 0 16 16" fill="none" xmlns="http://www.w3.org/2000/svg">
<g clip-path="url(#clip0_9_3451)">
<path d="M8 16C12.4334 16 16 12.4334 16 8C16 3.56664 12.4334 0 8 0C3.56664 0 0 3.56664 0 8C0 12.4334 3.56664 16 8 16Z" fill="white"/>
<g clip-path="url(#clip1_9_3451)">
<path d="M7.3334 8.33336C7.47655 8.52474 7.65919 8.68309 7.86892 8.79768C8.07865 8.91226 8.31057 8.9804 8.54895 8.99747C8.78733 9.01455 9.0266 8.98015 9.25052 8.89662C9.47443 8.81309 9.67777 8.68239 9.84673 8.51336L10.8467 7.51336C11.1503 7.19903 11.3183 6.77802 11.3145 6.34103C11.3107 5.90403 11.1354 5.48601 10.8264 5.177C10.5174 4.86798 10.0994 4.6927 9.6624 4.68891C9.22541 4.68511 8.8044 4.8531 8.49007 5.1567L7.91673 5.7267M8.66673 7.6667C8.52358 7.47532 8.34095 7.31697 8.13122 7.20238C7.92149 7.0878 7.68956 7.01966 7.45118 7.00258C7.2128 6.98551 6.97354 7.01991 6.74962 7.10344C6.5257 7.18696 6.32236 7.31767 6.1534 7.4867L5.1534 8.4867C4.8498 8.80103 4.68181 9.22204 4.68561 9.65903C4.68941 10.096 4.86469 10.514 5.1737 10.8231C5.48272 11.1321 5.90074 11.3074 6.33773 11.3112C6.77473 11.315 7.19573 11.147 7.51007 10.8434L8.08007 10.2734" stroke="black" stroke-linecap="round" stroke-linejoin="round"/>
</g>
</g>
<defs>
<clipPath id="clip0_9_3451">
<rect width="16" height="16" fill="white"/>
</clipPath>
<clipPath id="clip1_9_3451">
<rect width="8" height="8" fill="white" transform="translate(4 4)"/>
</clipPath>
</defs>
</svg>
