<svg width="32" height="32" viewBox="0 0 32 32" fill="none" xmlns="http://www.w3.org/2000/svg">
  <circle cx="16" cy="16" r="16" fill="#627EEA"/>
  <path d="M16 6C10.48 6 6 10.48 6 16C6 21.52 10.48 26 16 26C21.52 26 26 21.52 26 16C26 10.48 21.52 6 16 6ZM16.5 20.5H15.5V19.5H16.5V20.5ZM18.07 15.88C17.94 16.23 17.73 16.5 17.43 16.73C17.13 16.95 16.81 17.1 16.5 17.15V18.5H15.5V17.14C14.96 17.06 14.46 16.84 14 16.46L14.66 15.54C14.88 15.75 15.12 15.91 15.37 16.02C15.62 16.13 15.87 16.18 16.12 16.18C16.56 16.18 16.91 16.07 17.17 15.86C17.43 15.64 17.56 15.35 17.56 14.98C17.56 14.71 17.48 14.48 17.32 14.29C17.16 14.1 16.91 13.94 16.57 13.81C16.14 13.65 15.77 13.46 15.47 13.25C15.17 13.04 14.94 12.8 14.77 12.52C14.6 12.24 14.52 11.9 14.52 11.5C14.52 11.1 14.62 10.73 14.82 10.4C15.02 10.07 15.3 9.81 15.66 9.62C15.89 9.5 16.14 9.42 16.4 9.38V8.5H17.4V9.38C17.89 9.46 18.34 9.65 18.76 9.94L18.16 10.88C17.91 10.7 17.67 10.56 17.44 10.47C17.21 10.38 16.97 10.33 16.72 10.33C16.33 10.33 16.02 10.43 15.79 10.64C15.56 10.85 15.45 11.12 15.45 11.46C15.45 11.73 15.53 11.96 15.69 12.15C15.85 12.34 16.1 12.5 16.44 12.63C16.87 12.79 17.24 12.98 17.54 13.19C17.84 13.4 18.07 13.64 18.24 13.92C18.41 14.2 18.49 14.54 18.49 14.94C18.49 15.29 18.35 15.62 18.07 15.88Z" fill="white"/>
</svg> 