<svg width="40" height="40" viewBox="0 0 40 40" fill="none" xmlns="http://www.w3.org/2000/svg">
<circle cx="20.0004" cy="20.0004" r="17.7778" fill="#B88AF8"/>
<circle cx="20" cy="20" r="20" fill="#27705F"/>
<circle cx="20.0004" cy="20.0024" r="17.7778" fill="#27705F"/>
<path d="M34.7061 29.9922C31.507 34.6933 26.1131 37.7812 19.998 37.7812C13.8832 37.7811 8.48998 34.6932 5.29102 29.9922H34.7061ZM36.9619 14.6719C37.4904 16.3549 37.7763 18.1455 37.7764 20.0029C37.7764 22.0177 37.4399 23.9543 36.8223 25.7598H3.17383C2.55627 23.9543 2.2207 22.0176 2.2207 20.0029C2.22075 18.1456 2.50578 16.3549 3.03418 14.6719H36.9619ZM19.998 2.22559C26.2957 2.22559 31.8291 5.50009 34.9873 10.4395H5.00977C8.16792 5.50023 13.7006 2.22574 19.998 2.22559Z" fill="white"/>
<circle cx="20.0042" cy="20.0052" r="15.555" fill="#0F3933"/>
<path d="M30 19.958C30 26.5701 25.9536 28.6917 23.8216 26.8026C22.0667 25.2621 21.5446 22.007 18.905 21.6728C15.5547 21.2514 15.2647 25.7127 13.0602 25.7127C10.4931 25.7127 10 21.9779 10 20.0597C10 18.0979 10.5511 15.424 12.7411 15.424C15.2937 15.424 15.4387 19.2459 18.6294 19.0425C21.8057 18.8245 21.8637 14.8427 23.9232 13.1424C25.7215 11.6747 30 13.2587 30 19.958Z" fill="#97FCE4"/>
</svg>
