<svg width="56" height="56" viewBox="0 0 56 56" fill="none" xmlns="http://www.w3.org/2000/svg">
<circle cx="28.0002" cy="28.0002" r="24.8889" fill="#B88AF8"/>
<circle cx="28" cy="28" r="28" fill="#2775CA"/>
<circle cx="27.9983" cy="28.0002" r="24.8889" fill="#2775CA"/>
<path d="M48.5889 41.9824C44.1104 48.5653 36.5582 52.8887 27.9961 52.8887C19.4341 52.8886 11.8827 48.5651 7.4043 41.9824H48.5889ZM51.7451 20.5332C52.4855 22.8904 52.8847 25.3985 52.8848 28C52.8848 30.8197 52.4149 33.5297 51.5508 36.0566H4.44141C3.57735 33.5297 3.10742 30.8197 3.10742 28C3.10744 25.3984 3.50762 22.8904 4.24805 20.5332H51.7451ZM27.9961 3.11133C36.8112 3.11133 44.5556 7.69442 48.9775 14.6074H7.01465C11.4365 7.69436 19.181 3.1114 27.9961 3.11133Z" fill="white"/>
<circle cx="27.9985" cy="28.0004" r="21.7778" fill="#5496DE"/>
<mask id="path-6-outside-1_4112_28592" maskUnits="userSpaceOnUse" x="16.457" y="11.0986" width="22" height="36" fill="black">
<rect fill="white" x="16.457" y="11.0986" width="22" height="36"/>
<path d="M26.5385 46.038V12.0986H28.7127V46.038H26.5385ZM33.3396 22.6251C33.1982 21.3701 32.6149 20.3979 31.5896 19.7085C30.5644 19.0103 29.274 18.6611 27.7184 18.6611C26.6048 18.6611 25.6414 18.8379 24.8282 19.1914C24.0151 19.5361 23.3832 20.0134 22.9324 20.6233C22.4905 21.2243 22.2695 21.9092 22.2695 22.6782C22.2695 23.3234 22.4198 23.8802 22.7203 24.3486C23.0296 24.8171 23.4318 25.2104 23.9267 25.5286C24.4305 25.8379 24.9697 26.0986 25.5442 26.3108C26.1186 26.514 26.671 26.682 27.2014 26.8145L29.8529 27.5039C30.719 27.7161 31.6073 28.0033 32.5176 28.3657C33.428 28.7281 34.2721 29.2053 35.0498 29.7975C35.8276 30.3897 36.4551 31.1233 36.9324 31.9983C37.4185 32.8733 37.6616 33.9206 37.6616 35.1403C37.6616 36.6782 37.2639 38.0437 36.4684 39.2369C35.6818 40.4301 34.5372 41.3714 33.0347 42.0608C31.541 42.7502 29.7335 43.0948 27.6123 43.0948C25.5795 43.0948 23.8207 42.7722 22.3358 42.127C20.851 41.4818 19.6887 40.5671 18.8491 39.3827C18.0094 38.1895 17.5454 36.7754 17.457 35.1403H21.5669C21.6464 36.1214 21.9646 36.9389 22.5214 37.593C23.0871 38.2382 23.8074 38.7198 24.6824 39.038C25.5662 39.3474 26.5341 39.502 27.5858 39.502C28.7436 39.502 29.7733 39.3209 30.6748 38.9585C31.5852 38.5873 32.3011 38.0746 32.8226 37.4206C33.344 36.7577 33.6048 35.9844 33.6048 35.1005C33.6048 34.2962 33.375 33.6378 32.9154 33.1252C32.4646 32.6125 31.8503 32.1883 31.0726 31.8524C30.3036 31.5166 29.433 31.2205 28.4608 30.9642L25.2525 30.0892C23.0782 29.497 21.3548 28.6264 20.082 27.4774C18.8181 26.3284 18.1862 24.8082 18.1862 22.9168C18.1862 21.3524 18.6104 19.9869 19.4589 18.8202C20.3074 17.6536 21.4564 16.7476 22.9059 16.1024C24.3554 15.4484 25.9905 15.1214 27.8112 15.1214C29.6496 15.1214 31.2714 15.444 32.6767 16.0892C34.0909 16.7344 35.2045 17.6226 36.0176 18.7539C36.8308 19.8764 37.255 21.1668 37.2904 22.6251H33.3396Z"/>
</mask>
<path d="M26.5385 46.038V12.0986H28.7127V46.038H26.5385ZM33.3396 22.6251C33.1982 21.3701 32.6149 20.3979 31.5896 19.7085C30.5644 19.0103 29.274 18.6611 27.7184 18.6611C26.6048 18.6611 25.6414 18.8379 24.8282 19.1914C24.0151 19.5361 23.3832 20.0134 22.9324 20.6233C22.4905 21.2243 22.2695 21.9092 22.2695 22.6782C22.2695 23.3234 22.4198 23.8802 22.7203 24.3486C23.0296 24.8171 23.4318 25.2104 23.9267 25.5286C24.4305 25.8379 24.9697 26.0986 25.5442 26.3108C26.1186 26.514 26.671 26.682 27.2014 26.8145L29.8529 27.5039C30.719 27.7161 31.6073 28.0033 32.5176 28.3657C33.428 28.7281 34.2721 29.2053 35.0498 29.7975C35.8276 30.3897 36.4551 31.1233 36.9324 31.9983C37.4185 32.8733 37.6616 33.9206 37.6616 35.1403C37.6616 36.6782 37.2639 38.0437 36.4684 39.2369C35.6818 40.4301 34.5372 41.3714 33.0347 42.0608C31.541 42.7502 29.7335 43.0948 27.6123 43.0948C25.5795 43.0948 23.8207 42.7722 22.3358 42.127C20.851 41.4818 19.6887 40.5671 18.8491 39.3827C18.0094 38.1895 17.5454 36.7754 17.457 35.1403H21.5669C21.6464 36.1214 21.9646 36.9389 22.5214 37.593C23.0871 38.2382 23.8074 38.7198 24.6824 39.038C25.5662 39.3474 26.5341 39.502 27.5858 39.502C28.7436 39.502 29.7733 39.3209 30.6748 38.9585C31.5852 38.5873 32.3011 38.0746 32.8226 37.4206C33.344 36.7577 33.6048 35.9844 33.6048 35.1005C33.6048 34.2962 33.375 33.6378 32.9154 33.1252C32.4646 32.6125 31.8503 32.1883 31.0726 31.8524C30.3036 31.5166 29.433 31.2205 28.4608 30.9642L25.2525 30.0892C23.0782 29.497 21.3548 28.6264 20.082 27.4774C18.8181 26.3284 18.1862 24.8082 18.1862 22.9168C18.1862 21.3524 18.6104 19.9869 19.4589 18.8202C20.3074 17.6536 21.4564 16.7476 22.9059 16.1024C24.3554 15.4484 25.9905 15.1214 27.8112 15.1214C29.6496 15.1214 31.2714 15.444 32.6767 16.0892C34.0909 16.7344 35.2045 17.6226 36.0176 18.7539C36.8308 19.8764 37.255 21.1668 37.2904 22.6251H33.3396Z" fill="white"/>
<path d="M26.5385 46.038H25.9162V46.6603H26.5385V46.038ZM26.5385 12.0986V11.4764H25.9162V12.0986H26.5385ZM28.7127 12.0986H29.3349V11.4764H28.7127V12.0986ZM28.7127 46.038V46.6603H29.3349V46.038H28.7127ZM33.3396 22.6251L32.7213 22.6948L32.7836 23.2474H33.3396V22.6251ZM31.5896 19.7085L31.2394 20.2228L31.2424 20.2248L31.5896 19.7085ZM24.8282 19.1914L25.0711 19.7643L25.0763 19.7621L24.8282 19.1914ZM22.9324 20.6233L22.432 20.2534L22.4311 20.2547L22.9324 20.6233ZM22.7203 24.3486L22.1965 24.6846L22.2011 24.6915L22.7203 24.3486ZM23.9267 25.5286L23.5902 26.0521L23.6011 26.0588L23.9267 25.5286ZM25.5442 26.3108L25.3286 26.8945L25.3366 26.8973L25.5442 26.3108ZM27.2014 26.8145L27.3579 26.2123L27.3523 26.2109L27.2014 26.8145ZM29.8529 27.5039L29.6963 28.1062L29.7049 28.1083L29.8529 27.5039ZM36.9324 31.9983L36.3861 32.2962L36.3885 32.3004L36.9324 31.9983ZM36.4684 39.2369L35.9507 38.8917L35.9489 38.8944L36.4684 39.2369ZM33.0347 42.0608L32.7752 41.4952L32.7739 41.4958L33.0347 42.0608ZM22.3358 42.127L22.5838 41.5564L22.5838 41.5564L22.3358 42.127ZM18.8491 39.3827L18.3402 39.7408L18.3415 39.7426L18.8491 39.3827ZM17.457 35.1403V34.5181H16.8003L16.8357 35.1739L17.457 35.1403ZM21.5669 35.1403L22.1871 35.09L22.1407 34.5181H21.5669V35.1403ZM22.5214 37.593L22.0476 37.9964L22.0536 38.0031L22.5214 37.593ZM24.6824 39.038L24.4698 39.6228L24.4769 39.6253L24.6824 39.038ZM30.6748 38.9585L30.9069 39.5358L30.9098 39.5346L30.6748 38.9585ZM32.8226 37.4206L33.3091 37.8085L33.3116 37.8053L32.8226 37.4206ZM32.9154 33.1252L32.4481 33.536L32.4521 33.5405L32.9154 33.1252ZM31.0726 31.8524L30.8235 32.4226L30.8259 32.4237L31.0726 31.8524ZM28.4608 30.9642L28.2971 31.5645L28.3022 31.5658L28.4608 30.9642ZM25.2525 30.0892L25.4162 29.4889L25.416 29.4888L25.2525 30.0892ZM20.082 27.4774L19.6635 27.9378L19.6651 27.9393L20.082 27.4774ZM19.4589 18.8202L18.9557 18.4543L18.9557 18.4543L19.4589 18.8202ZM22.9059 16.1024L23.1589 16.6709L23.1618 16.6696L22.9059 16.1024ZM32.6767 16.0892L32.4171 16.6546L32.4185 16.6553L32.6767 16.0892ZM36.0176 18.7539L35.5124 19.1171L35.5137 19.119L36.0176 18.7539ZM37.2904 22.6251V23.2474H37.9279L37.9124 22.6101L37.2904 22.6251ZM26.5385 46.038H27.1607V12.0986H26.5385H25.9162V46.038H26.5385ZM26.5385 12.0986V12.7209H28.7127V12.0986V11.4764H26.5385V12.0986ZM28.7127 12.0986H28.0905V46.038H28.7127H29.3349V12.0986H28.7127ZM28.7127 46.038V45.4158H26.5385V46.038V46.6603H28.7127V46.038ZM33.3396 22.6251L33.9579 22.5555C33.7966 21.1236 33.1174 19.986 31.9368 19.1921L31.5896 19.7085L31.2424 20.2248C32.1123 20.8097 32.5998 21.6166 32.7213 22.6948L33.3396 22.6251ZM31.5896 19.7085L31.9399 19.1942C30.7878 18.4096 29.3671 18.0389 27.7184 18.0389V18.6611V19.2834C29.1808 19.2834 30.3409 19.6109 31.2394 20.2228L31.5896 19.7085ZM27.7184 18.6611V18.0389C26.5405 18.0389 25.4889 18.2257 24.5801 18.6208L24.8282 19.1914L25.0763 19.7621C25.7939 19.4501 26.669 19.2834 27.7184 19.2834V18.6611ZM24.8282 19.1914L24.5854 18.6186C23.6869 18.9995 22.9591 19.5403 22.432 20.2534L22.9324 20.6233L23.4328 20.9931C23.8072 20.4866 24.3433 20.0728 25.0711 19.7643L24.8282 19.1914ZM22.9324 20.6233L22.4311 20.2547C21.9081 20.966 21.6473 21.781 21.6473 22.6782H22.2695H22.8918C22.8918 22.0375 23.0729 21.4826 23.4337 20.9919L22.9324 20.6233ZM22.2695 22.6782H21.6473C21.6473 23.4231 21.822 24.1008 22.1966 24.6846L22.7203 24.3486L23.244 24.0127C23.0175 23.6596 22.8918 23.2237 22.8918 22.6782H22.2695ZM22.7203 24.3486L22.2011 24.6915C22.5604 25.2356 23.0261 25.6893 23.5903 26.052L23.9267 25.5286L24.2632 25.0052C23.8375 24.7315 23.4989 24.3985 23.2395 24.0058L22.7203 24.3486ZM23.9267 25.5286L23.6011 26.0588C24.141 26.3903 24.7172 26.6687 25.3286 26.8945L25.5442 26.3108L25.7597 25.7271C25.2222 25.5286 24.72 25.2855 24.2523 24.9983L23.9267 25.5286ZM25.5442 26.3108L25.3366 26.8973C25.9276 27.1065 26.499 27.2803 27.0504 27.4182L27.2014 26.8145L27.3523 26.2109C26.8431 26.0836 26.3097 25.9216 25.7517 25.7242L25.5442 26.3108ZM27.2014 26.8145L27.0448 27.4167L29.6963 28.1061L29.8529 27.5039L30.0094 26.9017L27.3579 26.2123L27.2014 26.8145ZM29.8529 27.5039L29.7049 28.1083C30.5405 28.3129 31.4013 28.591 32.2875 28.9438L32.5176 28.3657L32.7478 27.7876C31.8133 27.4156 30.8976 27.1192 30.0009 26.8996L29.8529 27.5039ZM32.5176 28.3657L32.2875 28.9438C33.1455 29.2853 33.9402 29.7347 34.6729 30.2926L35.0498 29.7975L35.4268 29.3024C34.6039 28.676 33.7105 28.1708 32.7478 27.7876L32.5176 28.3657ZM35.0498 29.7975L34.6729 30.2926C35.3796 30.8306 35.95 31.4965 36.3862 32.2962L36.9324 31.9983L37.4787 31.7003C36.9603 30.75 36.2756 29.9487 35.4268 29.3024L35.0498 29.7975ZM36.9324 31.9983L36.3885 32.3004C36.8132 33.0648 37.0394 34.0034 37.0394 35.1403H37.6616H38.2838C38.2838 33.8378 38.0239 32.6817 37.4763 31.6961L36.9324 31.9983ZM37.6616 35.1403H37.0394C37.0394 36.5647 36.673 37.8083 35.9507 38.8917L36.4684 39.2369L36.9861 39.582C37.8547 38.2792 38.2838 36.7917 38.2838 35.1403H37.6616ZM36.4684 39.2369L35.9489 38.8944C35.2359 39.9759 34.1888 40.8466 32.7752 41.4952L33.0347 42.0608L33.2942 42.6263C34.8856 41.8961 36.1277 40.8842 36.9879 39.5794L36.4684 39.2369ZM33.0347 42.0608L32.7739 41.4958C31.3821 42.1382 29.6686 42.4726 27.6123 42.4726V43.0948V43.7171C29.7985 43.7171 31.6999 43.3621 33.2954 42.6257L33.0347 42.0608ZM27.6123 43.0948V42.4726C25.6437 42.4726 23.9731 42.1601 22.5838 41.5564L22.3358 42.127L22.0878 42.6977C23.6682 43.3844 25.5153 43.7171 27.6123 43.7171V43.0948ZM22.3358 42.127L22.5838 41.5564C21.1908 40.9511 20.1233 40.1042 19.3567 39.0229L18.8491 39.3827L18.3415 39.7426C19.2542 41.03 20.5112 42.0126 22.0878 42.6977L22.3358 42.127ZM18.8491 39.3827L19.3579 39.0246C18.5935 37.9383 18.1612 36.6399 18.0783 35.1067L17.457 35.1403L16.8357 35.1739C16.9296 36.9109 17.4254 38.4408 18.3402 39.7408L18.8491 39.3827ZM17.457 35.1403V35.7625H21.5669V35.1403V34.5181H17.457V35.1403ZM21.5669 35.1403L20.9467 35.1906C21.0352 36.2821 21.3942 37.2288 22.0476 37.9963L22.5214 37.593L22.9952 37.1896C22.535 36.649 22.2577 35.9607 22.1871 35.09L21.5669 35.1403ZM22.5214 37.593L22.0536 38.0031C22.694 38.7337 23.505 39.2719 24.4698 39.6228L24.6824 39.038L24.8951 38.4533C24.1099 38.1677 23.4801 37.7426 22.9893 37.1828L22.5214 37.593ZM24.6824 39.038L24.4769 39.6253C25.4344 39.9604 26.4726 40.1243 27.5858 40.1243V39.502V38.8798C26.5955 38.8798 25.6981 38.7343 24.888 38.4507L24.6824 39.038ZM27.5858 39.502V40.1243C28.8082 40.1243 29.9189 39.9329 30.9069 39.5358L30.6748 38.9585L30.4428 38.3812C29.6277 38.7088 28.6791 38.8798 27.5858 38.8798V39.502ZM30.6748 38.9585L30.9098 39.5346C31.9013 39.1303 32.7105 38.5593 33.3091 37.8085L32.8226 37.4206L32.336 37.0327C31.8917 37.59 31.269 38.0442 30.4399 38.3823L30.6748 38.9585ZM32.8226 37.4206L33.3116 37.8053C33.9237 37.0272 34.227 36.1167 34.227 35.1005H33.6048H32.9825C32.9825 35.852 32.7644 36.4882 32.3335 37.0359L32.8226 37.4206ZM33.6048 35.1005H34.227C34.227 34.1703 33.9575 33.3554 33.3787 32.7098L32.9154 33.1252L32.4521 33.5405C32.7924 33.9201 32.9825 34.4222 32.9825 35.1005H33.6048ZM32.9154 33.1252L33.3826 32.7143C32.8583 32.1179 32.1616 31.6449 31.3192 31.2812L31.0726 31.8524L30.8259 32.4237C31.5391 32.7316 32.0709 33.1071 32.4481 33.536L32.9154 33.1252ZM31.0726 31.8524L31.3216 31.2822C30.5183 30.9314 29.6167 30.6254 28.6194 30.3625L28.4608 30.9642L28.3022 31.5658C29.2494 31.8155 30.0889 32.1018 30.8235 32.4226L31.0726 31.8524ZM28.4608 30.9642L28.6245 30.3639L25.4162 29.4889L25.2525 30.0892L25.0888 30.6895L28.2971 31.5645L28.4608 30.9642ZM25.2525 30.0892L25.416 29.4888C23.3075 28.9145 21.6802 28.0819 20.499 27.0156L20.082 27.4774L19.6651 27.9393C21.0294 29.1709 22.849 30.0794 25.089 30.6895L25.2525 30.0892ZM20.082 27.4774L20.5006 27.017C19.3811 25.9993 18.8084 24.6539 18.8084 22.9168H18.1862H17.564C17.564 24.9626 18.2551 26.6575 19.6635 27.9378L20.082 27.4774ZM18.1862 22.9168H18.8084C18.8084 21.4722 19.1976 20.2374 19.9621 19.1862L19.4589 18.8202L18.9557 18.4543C18.0233 19.7364 17.564 21.2326 17.564 22.9168H18.1862ZM19.4589 18.8202L19.9621 19.1862C20.7402 18.1164 21.7989 17.2762 23.1589 16.6709L22.9059 16.1024L22.6529 15.534C21.1139 16.219 19.8747 17.1907 18.9557 18.4543L19.4589 18.8202ZM22.9059 16.1024L23.1618 16.6696C24.52 16.0567 26.066 15.7436 27.8112 15.7436V15.1214V14.4991C25.915 14.4991 24.1908 14.84 22.65 15.5353L22.9059 16.1024ZM27.8112 15.1214V15.7436C29.5767 15.7436 31.1072 16.0532 32.4171 16.6546L32.6767 16.0892L32.9363 15.5237C31.4357 14.8347 29.7225 14.4991 27.8112 14.4991V15.1214ZM32.6767 16.0892L32.4185 16.6553C33.7457 17.2608 34.7696 18.0836 35.5124 19.1171L36.0176 18.7539L36.5229 18.3908C35.6394 17.1616 34.4361 16.2079 32.935 15.5231L32.6767 16.0892ZM36.0176 18.7539L35.5137 19.119C36.249 20.1339 36.6359 21.3008 36.6683 22.6402L37.2904 22.6251L37.9124 22.6101C37.8742 21.0328 37.4126 19.6189 36.5215 18.3889L36.0176 18.7539ZM37.2904 22.6251V22.0029H33.3396V22.6251V23.2474H37.2904V22.6251Z" fill="#5B81EC" mask="url(#path-6-outside-1_4112_28592)"/>
</svg>
