<svg width="56" height="56" viewBox="0 0 56 56" fill="none" xmlns="http://www.w3.org/2000/svg">
<circle cx="28" cy="28" r="28" fill="#35165F"/>
<path fill-rule="evenodd" clip-rule="evenodd" d="M28.0061 52.8891C36.5674 52.8891 44.1192 48.5664 48.5978 41.9845H32.3584C31.1796 42.7586 29.7734 43.1774 28.1398 43.2409C26.7598 43.2907 25.2595 43.0458 23.6388 42.5061L22.5273 45.3067L20.5064 44.5047L21.5066 41.9845H7.41439C11.893 48.5664 19.4447 52.8891 28.0061 52.8891ZM21.0654 36.0586C20.7494 35.6434 20.514 35.192 20.3594 34.7044C20.1144 33.932 20.1335 33.0933 20.4166 32.1882L15.9189 30.4031C15.3195 32.1051 15.1908 33.6991 15.5329 35.1851C15.6029 35.4825 15.6897 35.7736 15.7933 36.0586H4.45068C3.58627 33.5312 3.11719 30.8205 3.11719 28.0002C3.11719 25.3995 3.51609 22.8919 4.25606 20.5353H20.6272C20.1198 22.1355 20.2098 23.6395 20.8971 25.0474C21.6743 26.6111 22.9962 28.0723 24.8627 29.4312L26.1239 30.3504L23.8585 36.0586H21.0654ZM26.1977 36.0586H30.7453C30.8329 35.602 30.802 35.1667 30.6526 34.7529C30.4475 34.1675 30.0611 33.5958 29.4934 33.0377C29.054 32.5929 28.5348 32.1402 27.9357 31.6795L26.1977 36.0586ZM29.5893 27.5129L30.6105 28.2463C31.4754 28.8463 32.2723 29.5097 33.0014 30.2364C33.7386 30.9664 34.3423 31.7575 34.8123 32.6097C35.2906 33.4652 35.5737 34.381 35.6617 35.3573C35.6825 35.5878 35.6887 35.8216 35.6804 36.0586H51.5615C52.4259 33.5312 52.895 30.8205 52.895 28.0002C52.895 25.3995 52.4961 22.8919 51.7561 20.5353H38.5694C39.0277 21.269 39.3545 22.0456 39.5498 22.8651C39.8884 24.2642 39.788 25.6792 39.2486 27.1102L34.8494 25.3643C35.1615 24.2425 35.0094 23.2122 34.393 22.2734C33.9468 21.587 33.2995 21.0077 32.451 20.5353H32.3585L29.5893 27.5129ZM26.2188 20.5353H30.0193L27.7743 26.1919C27.5525 26.0173 27.3343 25.8362 27.1199 25.6486C26.6823 25.2657 26.3062 24.8597 25.9915 24.4305C25.6802 23.9931 25.4779 23.5325 25.3846 23.0486C25.2996 22.5679 25.3615 22.0647 25.5701 21.5389C25.7298 21.1513 25.946 20.8168 26.2188 20.5353ZM32.3711 14.6094H7.02284C11.4445 7.69509 19.19 3.11133 28.0061 3.11133C36.8222 3.11133 44.5677 7.69509 48.9893 14.6094H34.7104L35.0471 13.7609L33.0262 12.9589L32.3711 14.6094Z" fill="#B88AF8"/>
<mask id="path-3-outside-1_2253_14187" maskUnits="userSpaceOnUse" x="9.1338" y="6.39984" width="37.2545" height="44.5422" fill="black">
<rect fill="white" x="9.1338" y="6.39984" width="37.2545" height="44.5422"/>
<path d="M20.4459 44.4815L32.9657 12.9357L34.9866 13.7377L22.4668 45.2835L20.4459 44.4815ZM35.4041 25.2286C35.7356 24.0099 35.5521 22.8911 34.8534 21.8721C34.1581 20.8449 33.0874 20.0444 31.6416 19.4706C30.6065 19.0598 29.6459 18.8687 28.7597 18.8974C27.8767 18.9178 27.1133 19.1283 26.4693 19.5289C25.8369 19.9245 25.3788 20.4796 25.0952 21.1943C24.8572 21.794 24.7914 22.367 24.8979 22.9132C25.0127 23.4628 25.2414 23.9767 25.584 24.455C25.9382 24.9284 26.3431 25.3696 26.7989 25.7787C27.2578 26.1795 27.7093 26.5394 28.1533 26.8582L30.3636 28.4771C31.0904 28.9938 31.81 29.5885 32.5225 30.2611C33.235 30.9337 33.8435 31.6887 34.3479 32.526C34.8524 33.3633 35.1651 34.2767 35.2859 35.266C35.415 36.2586 35.2545 37.3218 34.8046 38.4555C34.2373 39.8849 33.3639 41.0074 32.1844 41.823C31.0131 42.6419 29.602 43.0945 27.9512 43.1811C26.3085 43.2708 24.5014 42.9245 22.5298 42.142C20.6403 41.3921 19.1245 40.4434 17.9824 39.296C16.8403 38.1486 16.0974 36.8696 15.7539 35.459C15.4136 34.0403 15.504 32.5547 16.025 31.0023L19.845 32.5184C19.557 33.4596 19.5512 34.3368 19.8275 35.1502C20.1152 35.9585 20.6071 36.672 21.303 37.2905C22.0104 37.904 22.8529 38.4048 23.8305 38.7928C24.9066 39.2199 25.9305 39.4313 26.9021 39.4271C27.8852 39.4178 28.7397 39.2055 29.4657 38.7899C30.1949 38.3661 30.7225 37.7435 31.0486 36.922C31.3453 36.1744 31.3746 35.4776 31.1365 34.8316C30.9066 34.1889 30.4922 33.5679 29.8931 32.9689C29.3023 32.373 28.6024 31.7767 27.7933 31.1798L25.134 29.183C23.3315 27.8306 22.0507 26.3856 21.2916 24.8482C20.5407 23.314 20.5141 21.6679 21.2118 19.9098C21.7889 18.4558 22.6869 17.3431 23.9059 16.5717C25.125 15.8003 26.5271 15.3821 28.1124 15.3171C29.7009 15.2439 31.3413 15.5431 33.0336 16.2147C34.7424 16.8928 36.1308 17.791 37.199 18.9091C38.2754 20.0304 38.9828 21.2668 39.3213 22.6183C39.663 23.9616 39.5813 25.3175 39.0762 26.686L35.4041 25.2286Z"/>
</mask>
<path d="M20.4459 44.4815L32.9657 12.9357L34.9866 13.7377L22.4668 45.2835L20.4459 44.4815ZM35.4041 25.2286C35.7356 24.0099 35.5521 22.8911 34.8534 21.8721C34.1581 20.8449 33.0874 20.0444 31.6416 19.4706C30.6065 19.0598 29.6459 18.8687 28.7597 18.8974C27.8767 18.9178 27.1133 19.1283 26.4693 19.5289C25.8369 19.9245 25.3788 20.4796 25.0952 21.1943C24.8572 21.794 24.7914 22.367 24.8979 22.9132C25.0127 23.4628 25.2414 23.9767 25.584 24.455C25.9382 24.9284 26.3431 25.3696 26.7989 25.7787C27.2578 26.1795 27.7093 26.5394 28.1533 26.8582L30.3636 28.4771C31.0904 28.9938 31.81 29.5885 32.5225 30.2611C33.235 30.9337 33.8435 31.6887 34.3479 32.526C34.8524 33.3633 35.1651 34.2767 35.2859 35.266C35.415 36.2586 35.2545 37.3218 34.8046 38.4555C34.2373 39.8849 33.3639 41.0074 32.1844 41.823C31.0131 42.6419 29.602 43.0945 27.9512 43.1811C26.3085 43.2708 24.5014 42.9245 22.5298 42.142C20.6403 41.3921 19.1245 40.4434 17.9824 39.296C16.8403 38.1486 16.0974 36.8696 15.7539 35.459C15.4136 34.0403 15.504 32.5547 16.025 31.0023L19.845 32.5184C19.557 33.4596 19.5512 34.3368 19.8275 35.1502C20.1152 35.9585 20.6071 36.672 21.303 37.2905C22.0104 37.904 22.8529 38.4048 23.8305 38.7928C24.9066 39.2199 25.9305 39.4313 26.9021 39.4271C27.8852 39.4178 28.7397 39.2055 29.4657 38.7899C30.1949 38.3661 30.7225 37.7435 31.0486 36.922C31.3453 36.1744 31.3746 35.4776 31.1365 34.8316C30.9066 34.1889 30.4922 33.5679 29.8931 32.9689C29.3023 32.373 28.6024 31.7767 27.7933 31.1798L25.134 29.183C23.3315 27.8306 22.0507 26.3856 21.2916 24.8482C20.5407 23.314 20.5141 21.6679 21.2118 19.9098C21.7889 18.4558 22.6869 17.3431 23.9059 16.5717C25.125 15.8003 26.5271 15.3821 28.1124 15.3171C29.7009 15.2439 31.3413 15.5431 33.0336 16.2147C34.7424 16.8928 36.1308 17.791 37.199 18.9091C38.2754 20.0304 38.9828 21.2668 39.3213 22.6183C39.663 23.9616 39.5813 25.3175 39.0762 26.686L35.4041 25.2286Z" fill="white"/>
<path d="M20.4459 44.4815L19.0001 43.9076L18.4263 45.3535L19.8721 45.9273L20.4459 44.4815ZM32.9657 12.9357L33.5395 11.4898L32.0937 10.916L31.5198 12.3618L32.9657 12.9357ZM34.9866 13.7377L36.4325 14.3115L37.0063 12.8657L35.5604 12.2919L34.9866 13.7377ZM22.4668 45.2835L21.893 46.7294L23.3389 47.3032L23.9127 45.8573L22.4668 45.2835ZM35.4041 25.2286L33.9031 24.8203L33.5382 26.1617L34.8303 26.6745L35.4041 25.2286ZM34.8534 21.8721L33.5653 22.7442L33.5705 22.7517L34.8534 21.8721ZM28.7597 18.8974L28.7956 20.4525L28.8028 20.4523L28.8099 20.4521L28.7597 18.8974ZM26.4693 19.5289L25.6477 18.208L25.6444 18.21L26.4693 19.5289ZM24.8979 22.9132L23.3711 23.211L23.3731 23.2211L23.3752 23.2312L24.8979 22.9132ZM25.584 24.455L24.3195 25.3609L24.3289 25.374L24.3385 25.3869L25.584 24.455ZM26.7989 25.7787L25.7598 26.9363L25.7676 26.9433L25.7756 26.9503L26.7989 25.7787ZM28.1533 26.8583L29.0725 25.6033L29.0666 25.599L29.0607 25.5947L28.1533 26.8583ZM30.3636 28.4771L29.4444 29.7321L29.4533 29.7386L29.4623 29.745L30.3636 28.4771ZM35.2859 35.266L33.7418 35.4546L33.7433 35.4666L35.2859 35.266ZM32.1844 41.823L31.2997 40.5435L31.2931 40.5481L32.1844 41.823ZM27.9512 43.1811L27.8698 41.6276L27.8663 41.6278L27.9512 43.1811ZM17.9824 39.296L19.0849 38.1986L17.9824 39.296ZM15.7539 35.459L14.2412 35.8218L14.2425 35.8271L15.7539 35.459ZM16.025 31.0023L16.5988 29.5564L15.0727 28.9508L14.5503 30.5073L16.025 31.0023ZM19.845 32.5184L21.3325 32.9735L21.7522 31.6017L20.4188 31.0725L19.845 32.5184ZM19.8275 35.1502L18.3546 35.6505L18.3582 35.6612L18.362 35.6718L19.8275 35.1502ZM21.303 37.2905L20.2696 38.4532L20.2766 38.4594L20.2837 38.4656L21.303 37.2905ZM26.9021 39.4271L26.909 40.9826L26.9167 40.9825L26.9021 39.4271ZM29.4657 38.7899L30.2385 40.14L30.2473 40.1348L29.4657 38.7899ZM31.1365 34.8316L29.6718 35.3554L29.6743 35.3625L29.6769 35.3695L31.1365 34.8316ZM29.8931 32.9689L28.7886 34.0642L28.7931 34.0688L29.8931 32.9689ZM27.7933 31.1798L26.8592 32.4238L26.8698 32.4316L27.7933 31.1798ZM25.134 29.183L26.068 27.9391L26.0676 27.9388L25.134 29.183ZM21.2916 24.8482L19.8944 25.532L19.8968 25.5369L21.2916 24.8482ZM23.9059 16.5717L23.0741 15.2572L23.9059 16.5717ZM28.1124 15.3171L28.1761 16.8713L28.184 16.871L28.1124 15.3171ZM37.199 18.9091L36.0742 19.9836L36.0768 19.9863L37.199 18.9091ZM39.3213 22.6183L37.8123 22.9962L37.8138 23.0018L39.3213 22.6183ZM39.0762 26.686L38.5024 28.1319L39.9837 28.7198L40.5356 27.2246L39.0762 26.686ZM21.8918 45.0553L34.4115 13.5095L31.5198 12.3618L19.0001 43.9076L21.8918 45.0553ZM32.3919 14.3815L34.4128 15.1836L35.5604 12.2919L33.5395 11.4898L32.3919 14.3815ZM33.5408 13.1639L21.021 44.7097L23.9127 45.8573L36.4325 14.3115L33.5408 13.1639ZM23.0407 43.8377L21.0198 43.0356L19.8721 45.9273L21.893 46.7294L23.0407 43.8377ZM36.9051 25.637C37.3534 23.989 37.0997 22.3975 36.1364 20.9925L33.5705 22.7517C34.0044 23.3846 34.1179 24.0308 33.9031 24.8203L36.9051 25.637ZM36.1416 21.0001C35.2313 19.6554 33.8776 18.6844 32.2154 18.0247L31.0678 20.9164C32.2973 21.4044 33.0849 22.0345 33.5653 22.7441L36.1416 21.0001ZM32.2154 18.0247C31.0311 17.5547 29.856 17.3055 28.7094 17.3426L28.8099 20.4521C29.4357 20.4319 30.1819 20.5649 31.0678 20.9164L32.2154 18.0247ZM28.7237 17.3422C27.6089 17.368 26.5643 17.6378 25.6477 18.208L27.291 20.8497C27.6622 20.6188 28.1445 20.4676 28.7956 20.4525L28.7237 17.3422ZM25.6444 18.21C24.7218 18.7872 24.0513 19.6078 23.6493 20.6205L26.541 21.7681C26.7064 21.3514 26.952 21.0617 27.2943 20.8477L25.6444 18.21ZM23.6493 20.6205C23.3194 21.4519 23.199 22.3283 23.3711 23.211L26.4247 22.6155C26.3838 22.4057 26.395 22.1361 26.541 21.7681L23.6493 20.6205ZM23.3752 23.2312C23.5363 24.0027 23.857 24.7153 24.3195 25.3609L26.8486 23.5491C26.6257 23.238 26.489 22.9228 26.4207 22.5953L23.3752 23.2312ZM24.3385 25.3869C24.756 25.9449 25.2307 26.4613 25.7598 26.9363L27.838 24.6211C27.4556 24.2778 27.1204 23.9118 26.8296 23.5231L24.3385 25.3869ZM25.7756 26.9503C26.2676 27.38 26.7577 27.7711 27.246 28.1218L29.0607 25.5947C28.661 25.3077 28.2481 24.9791 27.8221 24.6071L25.7756 26.9503ZM27.2342 28.1132L29.4444 29.7321L31.2827 27.2222L29.0725 25.6033L27.2342 28.1132ZM29.4623 29.745C30.1251 30.2161 30.7894 30.7642 31.4546 31.3922L33.5904 29.13C32.8306 28.4127 32.0557 27.7715 31.2648 27.2093L29.4623 29.745ZM31.4546 31.3922C32.0647 31.9681 32.5841 32.6127 33.0155 33.3288L35.6804 31.7233C35.1028 30.7647 34.4053 29.8993 33.5904 29.13L31.4546 31.3922ZM33.0155 33.3288C33.4048 33.9748 33.647 34.6782 33.7418 35.4546L36.83 35.0774C36.6832 33.8751 36.3001 32.7519 35.6804 31.7233L33.0155 33.3288ZM33.7433 35.4666C33.8316 36.1455 33.7323 36.9404 33.3588 37.8816L36.2505 39.0293C36.7767 37.7032 36.9983 36.3718 36.8285 35.0655L33.7433 35.4666ZM33.3588 37.8816C32.8961 39.0473 32.2081 39.9154 31.2997 40.5435L33.0691 43.1025C34.5198 42.0994 35.5785 40.7225 36.2505 39.0293L33.3588 37.8816ZM31.2931 40.5481C30.3959 41.1754 29.2764 41.5539 27.8698 41.6276L28.0326 44.7345C29.9277 44.6352 31.6304 44.1083 33.0757 43.0979L31.2931 40.5481ZM27.8663 41.6278C26.5035 41.7023 24.9242 41.4187 23.1036 40.6961L21.956 43.5878C24.0785 44.4302 26.1135 44.8394 28.0361 44.7343L27.8663 41.6278ZM23.1036 40.6961C21.3634 40.0055 20.0433 39.1615 19.0849 38.1986L16.8799 40.3934C18.2057 41.7254 19.9172 42.7787 21.956 43.5878L23.1036 40.6961ZM19.0849 38.1986C18.1194 37.2286 17.5341 36.1947 17.2653 35.0909L14.2425 35.8271C14.6608 37.5444 15.5612 39.0685 16.8799 40.3934L19.0849 38.1986ZM17.2665 35.0962C17.0024 33.995 17.0599 32.8078 17.4997 31.4972L14.5503 30.5073C13.9481 32.3016 13.8248 34.0855 14.2412 35.8218L17.2665 35.0962ZM15.4512 32.4481L19.2712 33.9642L20.4188 31.0725L16.5988 29.5564L15.4512 32.4481ZM18.3575 32.0633C17.9885 33.2693 17.9585 34.4844 18.3546 35.6505L21.3004 34.6498C21.1439 34.1893 21.1256 33.6498 21.3325 32.9735L18.3575 32.0633ZM18.362 35.6718C18.7449 36.7475 19.3951 37.6759 20.2696 38.4532L22.3364 36.1278C21.819 35.668 21.4855 35.1695 21.2929 34.6285L18.362 35.6718ZM20.2837 38.4656C21.1385 39.207 22.1362 39.794 23.2566 40.2386L24.4043 37.3469C23.5695 37.0156 22.8822 36.6011 22.3222 36.1154L20.2837 38.4656ZM23.2566 40.2386C24.4829 40.7253 25.7044 40.9879 26.909 40.9826L26.8953 37.8715C26.1567 37.8748 25.3304 37.7145 24.4043 37.3469L23.2566 40.2386ZM26.9167 40.9825C28.1191 40.9713 29.244 40.7092 30.2385 40.1399L28.6929 37.4399C28.2355 37.7017 27.6514 37.8644 26.8876 37.8716L26.9167 40.9825ZM30.2473 40.1348C31.2933 39.527 32.0463 38.6248 32.4944 37.4958L29.6027 36.3482C29.3987 36.8621 29.0965 37.2053 28.6841 37.445L30.2473 40.1348ZM32.4944 37.4958C32.9072 36.4556 32.9886 35.3588 32.5961 34.2937L29.6769 35.3695C29.7605 35.5965 29.7833 35.8932 29.6027 36.3482L32.4944 37.4958ZM32.6012 34.3078C32.2775 33.4027 31.7166 32.5925 30.9931 31.869L28.7931 34.0688C29.2678 34.5434 29.5357 34.9751 29.6718 35.3554L32.6012 34.3078ZM30.9977 31.8736C30.3409 31.2112 29.5779 30.5634 28.7167 29.928L26.8698 32.4316C27.6268 32.99 28.2637 33.5349 28.7886 34.0642L30.9977 31.8736ZM28.7273 29.9359L26.068 27.9391L24.1999 30.4269L26.8592 32.4237L28.7273 29.9359ZM26.0676 27.9388C24.4013 26.6885 23.309 25.4204 22.6864 24.1595L19.8968 25.5369C20.7924 27.3508 22.2617 28.9726 24.2004 30.4273L26.0676 27.9388ZM22.6888 24.1643C22.1524 23.0685 22.1023 21.883 22.6576 20.4837L19.766 19.336C18.9259 21.4527 18.9289 23.5595 19.8944 25.532L22.6888 24.1643ZM22.6576 20.4837C23.1243 19.3079 23.8203 18.4667 24.7377 17.8861L23.0741 15.2572C21.5535 16.2194 20.4535 17.6036 19.766 19.336L22.6576 20.4837ZM24.7377 17.8861C25.7036 17.2749 26.8355 16.9263 28.1761 16.8713L28.0486 13.7628C26.2187 13.8379 24.5463 14.3256 23.0741 15.2572L24.7377 17.8861ZM28.184 16.871C29.5224 16.8093 30.9429 17.0585 32.4598 17.6605L33.6074 14.7688C31.7397 14.0276 29.8794 13.6784 28.0408 13.7632L28.184 16.871ZM32.4598 17.6605C33.9991 18.2715 35.1873 19.0552 36.0742 19.9836L38.3238 17.8345C37.0743 16.5267 35.4856 15.5142 33.6074 14.7688L32.4598 17.6605ZM36.0768 19.9863C36.9878 20.9353 37.5471 21.937 37.8123 22.9962L40.8303 22.2404C40.4186 20.5967 39.563 19.1255 38.3212 17.8318L36.0768 19.9863ZM37.8138 23.0018C38.0737 24.0234 38.019 25.0579 37.6169 26.1474L40.5356 27.2246C41.1436 25.5771 41.2524 23.8997 40.8288 22.2348L37.8138 23.0018ZM39.6501 25.2402L35.9779 23.7828L34.8303 26.6745L38.5024 28.1319L39.6501 25.2402Z" fill="#280F4B" mask="url(#path-3-outside-1_2253_14187)"/>
</svg>
