<svg width="56" height="56" viewBox="0 0 56 56" fill="none" xmlns="http://www.w3.org/2000/svg">
<circle cx="28.0002" cy="28.0002" r="24.8889" fill="#B88AF8"/>
<circle cx="28" cy="28" r="28" fill="#2775CA"/>
<circle cx="27.9983" cy="28.0002" r="24.8889" fill="#2775CA"/>
<path fill-rule="evenodd" clip-rule="evenodd" d="M48.5893 41.9826C44.1109 48.5656 36.5585 52.8891 27.9963 52.8891C19.4341 52.8891 11.8817 48.5656 7.4033 41.9826H48.5893ZM51.5524 36.0566H4.44025C3.57627 33.5298 3.10742 30.8198 3.10742 28.0002C3.10742 25.3987 3.50655 22.8905 4.2469 20.5333H51.7457C52.4861 22.8905 52.8852 25.3987 52.8852 28.0002C52.8852 30.8198 52.4164 33.5298 51.5524 36.0566ZM27.9963 3.11133C19.1811 3.11133 11.4362 7.69422 7.01432 14.6074H48.9783C44.5564 7.69422 36.8116 3.11133 27.9963 3.11133Z" fill="white"/>
<circle cx="27.9985" cy="28.0004" r="21.7778" fill="#5496DE"/>
<mask id="path-6-outside-1_2253_14190" maskUnits="userSpaceOnUse" x="16.4575" y="11.0986" width="22" height="36" fill="black">
<rect fill="white" x="16.4575" y="11.0986" width="22" height="36"/>
<path d="M26.539 46.038V12.0986H28.7132V46.038H26.539ZM33.3401 22.6251C33.1987 21.3701 32.6153 20.3979 31.5901 19.7085C30.5648 19.0103 29.2744 18.6611 27.7189 18.6611C26.6052 18.6611 25.6419 18.8379 24.8287 19.1914C24.0156 19.5361 23.3837 20.0134 22.9329 20.6233C22.491 21.2243 22.27 21.9092 22.27 22.6782C22.27 23.3234 22.4203 23.8802 22.7208 24.3486C23.0301 24.8171 23.4323 25.2104 23.9272 25.5286C24.431 25.8379 24.9701 26.0986 25.5446 26.3108C26.1191 26.514 26.6715 26.682 27.2018 26.8145L29.8534 27.5039C30.7195 27.7161 31.6078 28.0033 32.5181 28.3657C33.4285 28.7281 34.2725 29.2053 35.0503 29.7975C35.8281 30.3897 36.4556 31.1233 36.9329 31.9983C37.419 32.8733 37.6621 33.9206 37.6621 35.1403C37.6621 36.6782 37.2643 38.0437 36.4689 39.2369C35.6823 40.4301 34.5377 41.3714 33.0352 42.0608C31.5415 42.7502 29.734 43.0948 27.6128 43.0948C25.58 43.0948 23.8212 42.7722 22.3363 42.127C20.8515 41.4818 19.6892 40.5671 18.8496 39.3827C18.0099 38.1895 17.5459 36.7754 17.4575 35.1403H21.5674C21.6469 36.1214 21.9651 36.9389 22.5219 37.593C23.0876 38.2382 23.8079 38.7198 24.6829 39.038C25.5667 39.3474 26.5345 39.502 27.5863 39.502C28.7441 39.502 29.7738 39.3209 30.6753 38.9585C31.5857 38.5873 32.3016 38.0746 32.8231 37.4206C33.3445 36.7577 33.6052 35.9844 33.6052 35.1005C33.6052 34.2962 33.3755 33.6378 32.9159 33.1252C32.4651 32.6125 31.8508 32.1883 31.0731 31.8524C30.3041 31.5166 29.4335 31.2205 28.4613 30.9642L25.253 30.0892C23.0787 29.497 21.3552 28.6264 20.0825 27.4774C18.8186 26.3284 18.1867 24.8082 18.1867 22.9168C18.1867 21.3524 18.6109 19.9869 19.4594 18.8202C20.3079 17.6536 21.4569 16.7476 22.9064 16.1024C24.3559 15.4484 25.991 15.1214 27.8117 15.1214C29.6501 15.1214 31.2719 15.444 32.6772 16.0892C34.0914 16.7344 35.205 17.6226 36.0181 18.7539C36.8313 19.8764 37.2555 21.1668 37.2909 22.6251H33.3401Z"/>
</mask>
<path d="M26.539 46.038V12.0986H28.7132V46.038H26.539ZM33.3401 22.6251C33.1987 21.3701 32.6153 20.3979 31.5901 19.7085C30.5648 19.0103 29.2744 18.6611 27.7189 18.6611C26.6052 18.6611 25.6419 18.8379 24.8287 19.1914C24.0156 19.5361 23.3837 20.0134 22.9329 20.6233C22.491 21.2243 22.27 21.9092 22.27 22.6782C22.27 23.3234 22.4203 23.8802 22.7208 24.3486C23.0301 24.8171 23.4323 25.2104 23.9272 25.5286C24.431 25.8379 24.9701 26.0986 25.5446 26.3108C26.1191 26.514 26.6715 26.682 27.2018 26.8145L29.8534 27.5039C30.7195 27.7161 31.6078 28.0033 32.5181 28.3657C33.4285 28.7281 34.2725 29.2053 35.0503 29.7975C35.8281 30.3897 36.4556 31.1233 36.9329 31.9983C37.419 32.8733 37.6621 33.9206 37.6621 35.1403C37.6621 36.6782 37.2643 38.0437 36.4689 39.2369C35.6823 40.4301 34.5377 41.3714 33.0352 42.0608C31.5415 42.7502 29.734 43.0948 27.6128 43.0948C25.58 43.0948 23.8212 42.7722 22.3363 42.127C20.8515 41.4818 19.6892 40.5671 18.8496 39.3827C18.0099 38.1895 17.5459 36.7754 17.4575 35.1403H21.5674C21.6469 36.1214 21.9651 36.9389 22.5219 37.593C23.0876 38.2382 23.8079 38.7198 24.6829 39.038C25.5667 39.3474 26.5345 39.502 27.5863 39.502C28.7441 39.502 29.7738 39.3209 30.6753 38.9585C31.5857 38.5873 32.3016 38.0746 32.8231 37.4206C33.3445 36.7577 33.6052 35.9844 33.6052 35.1005C33.6052 34.2962 33.3755 33.6378 32.9159 33.1252C32.4651 32.6125 31.8508 32.1883 31.0731 31.8524C30.3041 31.5166 29.4335 31.2205 28.4613 30.9642L25.253 30.0892C23.0787 29.497 21.3552 28.6264 20.0825 27.4774C18.8186 26.3284 18.1867 24.8082 18.1867 22.9168C18.1867 21.3524 18.6109 19.9869 19.4594 18.8202C20.3079 17.6536 21.4569 16.7476 22.9064 16.1024C24.3559 15.4484 25.991 15.1214 27.8117 15.1214C29.6501 15.1214 31.2719 15.444 32.6772 16.0892C34.0914 16.7344 35.205 17.6226 36.0181 18.7539C36.8313 19.8764 37.2555 21.1668 37.2909 22.6251H33.3401Z" fill="white"/>
<path d="M26.539 46.038H25.9167V46.6603H26.539V46.038ZM26.539 12.0986V11.4764H25.9167V12.0986H26.539ZM28.7132 12.0986H29.3354V11.4764H28.7132V12.0986ZM28.7132 46.038V46.6603H29.3354V46.038H28.7132ZM33.3401 22.6251L32.7218 22.6948L32.784 23.2474H33.3401V22.6251ZM31.5901 19.7085L31.2398 20.2228L31.2429 20.2248L31.5901 19.7085ZM24.8287 19.1914L25.0716 19.7643L25.0768 19.7621L24.8287 19.1914ZM22.9329 20.6233L22.4325 20.2534L22.4316 20.2547L22.9329 20.6233ZM22.7208 24.3486L22.197 24.6846L22.2016 24.6915L22.7208 24.3486ZM23.9272 25.5286L23.5907 26.0521L23.6016 26.0588L23.9272 25.5286ZM25.5446 26.3108L25.3291 26.8945L25.3371 26.8973L25.5446 26.3108ZM27.2018 26.8145L27.3584 26.2123L27.3527 26.2109L27.2018 26.8145ZM29.8534 27.5039L29.6968 28.1062L29.7053 28.1083L29.8534 27.5039ZM36.9329 31.9983L36.3866 32.2962L36.389 32.3004L36.9329 31.9983ZM36.4689 39.2369L35.9512 38.8917L35.9494 38.8944L36.4689 39.2369ZM33.0352 42.0608L32.7757 41.4952L32.7744 41.4958L33.0352 42.0608ZM22.3363 42.127L22.5843 41.5564L22.3363 42.127ZM18.8496 39.3827L18.3407 39.7408L18.342 39.7426L18.8496 39.3827ZM17.4575 35.1403V34.5181H16.8008L16.8362 35.1739L17.4575 35.1403ZM21.5674 35.1403L22.1876 35.09L22.1412 34.5181H21.5674V35.1403ZM22.5219 37.593L22.0481 37.9963L22.054 38.0031L22.5219 37.593ZM24.6829 39.038L24.4702 39.6228L24.4773 39.6253L24.6829 39.038ZM30.6753 38.9585L30.9074 39.5358L30.9103 39.5346L30.6753 38.9585ZM32.8231 37.4206L33.3096 37.8085L33.3121 37.8053L32.8231 37.4206ZM32.9159 33.1252L32.4486 33.536L32.4526 33.5405L32.9159 33.1252ZM31.0731 31.8524L30.824 32.4226L30.8264 32.4237L31.0731 31.8524ZM28.4613 30.9642L28.2976 31.5645L28.3027 31.5658L28.4613 30.9642ZM25.253 30.0892L25.4167 29.4889L25.4165 29.4888L25.253 30.0892ZM20.0825 27.4774L19.664 27.9378L19.6656 27.9393L20.0825 27.4774ZM19.4594 18.8202L18.9562 18.4543L18.9562 18.4543L19.4594 18.8202ZM22.9064 16.1024L23.1594 16.6709L23.1623 16.6696L22.9064 16.1024ZM32.6772 16.0892L32.4176 16.6546L32.4189 16.6553L32.6772 16.0892ZM36.0181 18.7539L35.5129 19.1171L35.5142 19.119L36.0181 18.7539ZM37.2909 22.6251V23.2474H37.9283L37.9129 22.6101L37.2909 22.6251ZM27.1612 46.038V12.0986H25.9167V46.038H27.1612ZM26.539 12.7209H28.7132V11.4764H26.539V12.7209ZM28.091 12.0986V46.038H29.3354V12.0986H28.091ZM28.7132 45.4158H26.539V46.6603H28.7132V45.4158ZM33.9584 22.5555C33.7971 21.1236 33.1179 19.986 31.9373 19.1921L31.2429 20.2248C32.1128 20.8097 32.6003 21.6166 32.7218 22.6948L33.9584 22.5555ZM31.9403 19.1942C30.7883 18.4096 29.3675 18.0389 27.7189 18.0389V19.2834C29.1813 19.2834 30.3414 19.6109 31.2399 20.2228L31.9403 19.1942ZM27.7189 18.0389C26.541 18.0389 25.4893 18.2257 24.5806 18.6208L25.0768 19.7621C25.7944 19.4501 26.6695 19.2834 27.7189 19.2834V18.0389ZM24.5859 18.6186C23.6874 18.9995 22.9596 19.5403 22.4325 20.2534L23.4333 20.9931C23.8077 20.4866 24.3438 20.0728 25.0716 19.7643L24.5859 18.6186ZM22.4316 20.2547C21.9086 20.966 21.6478 21.781 21.6478 22.6782H22.8922C22.8922 22.0375 23.0734 21.4826 23.4342 20.9919L22.4316 20.2547ZM21.6478 22.6782C21.6478 23.4231 21.8225 24.1008 22.1971 24.6846L23.2445 24.0127C23.018 23.6596 22.8922 23.2237 22.8922 22.6782H21.6478ZM22.2016 24.6915C22.5609 25.2357 23.0266 25.6893 23.5907 26.052L24.2637 25.0052C23.838 24.7315 23.4994 24.3985 23.24 24.0058L22.2016 24.6915ZM23.6016 26.0588C24.1415 26.3903 24.7176 26.6687 25.3291 26.8945L25.7602 25.7271C25.2226 25.5286 24.7205 25.2855 24.2528 24.9983L23.6016 26.0588ZM25.3371 26.8973C25.9281 27.1065 26.4995 27.2803 27.0509 27.4182L27.3527 26.2109C26.8436 26.0836 26.3102 25.9216 25.7522 25.7242L25.3371 26.8973ZM27.0453 27.4167L29.6968 28.1061L30.0099 26.9017L27.3584 26.2123L27.0453 27.4167ZM29.7053 28.1083C30.541 28.3129 31.4018 28.591 32.288 28.9438L32.7482 27.7876C31.8137 27.4156 30.898 27.1192 30.0014 26.8996L29.7053 28.1083ZM32.288 28.9438C33.146 29.2853 33.9407 29.7347 34.6734 30.2926L35.4272 29.3024C34.6044 28.676 33.711 28.1708 32.7482 27.7876L32.288 28.9438ZM34.6734 30.2926C35.3801 30.8306 35.9505 31.4965 36.3867 32.2962L37.4791 31.7003C36.9608 30.75 36.2761 29.9487 35.4272 29.3024L34.6734 30.2926ZM36.389 32.3004C36.8136 33.0648 37.0398 34.0034 37.0398 35.1403H38.2843C38.2843 33.8378 38.0244 32.6817 37.4768 31.6961L36.389 32.3004ZM37.0398 35.1403C37.0398 36.5647 36.6735 37.8083 35.9512 38.8917L36.9866 39.582C37.8552 38.2792 38.2843 36.7917 38.2843 35.1403H37.0398ZM35.9494 38.8944C35.2364 39.9759 34.1893 40.8466 32.7757 41.4952L33.2947 42.6263C34.8861 41.8961 36.1281 40.8842 36.9884 39.5794L35.9494 38.8944ZM32.7744 41.4958C31.3825 42.1382 29.6691 42.4726 27.6128 42.4726V43.7171C29.799 43.7171 31.7004 43.3621 33.2959 42.6257L32.7744 41.4958ZM27.6128 42.4726C25.6442 42.4726 23.9736 42.1601 22.5843 41.5564L22.0883 42.6977C23.6687 43.3844 25.5158 43.7171 27.6128 43.7171V42.4726ZM22.5843 41.5564C21.1913 40.9511 20.1238 40.1042 19.3572 39.0229L18.342 39.7426C19.2547 41.03 20.5117 42.0126 22.0883 42.6977L22.5843 41.5564ZM19.3584 39.0246C18.5939 37.9383 18.1617 36.6399 18.0788 35.1067L16.8362 35.1739C16.9301 36.9109 17.4259 38.4408 18.3407 39.7408L19.3584 39.0246ZM17.4575 35.7625H21.5674V34.5181H17.4575V35.7625ZM20.9472 35.1906C21.0357 36.2821 21.3947 37.2288 22.0481 37.9963L22.9957 37.1896C22.5355 36.649 22.2581 35.9607 22.1876 35.09L20.9472 35.1906ZM22.054 38.0031C22.6945 38.7337 23.5054 39.2719 24.4703 39.6228L24.8955 38.4533C24.1104 38.1677 23.4806 37.7426 22.9898 37.1828L22.054 38.0031ZM24.4773 39.6253C25.4349 39.9604 26.4731 40.1243 27.5863 40.1243V38.8798C26.596 38.8798 25.6986 38.7343 24.8885 38.4507L24.4773 39.6253ZM27.5863 40.1243C28.8087 40.1243 29.9194 39.9329 30.9074 39.5358L30.4433 38.3812C29.6282 38.7088 28.6795 38.8798 27.5863 38.8798V40.1243ZM30.9103 39.5346C31.9018 39.1303 32.7109 38.5593 33.3096 37.8085L32.3365 37.0327C31.8922 37.59 31.2695 38.0442 30.4404 38.3823L30.9103 39.5346ZM33.3121 37.8053C33.9242 37.0272 34.2275 36.1167 34.2275 35.1005H32.983C32.983 35.852 32.7649 36.4882 32.334 37.0359L33.3121 37.8053ZM34.2275 35.1005C34.2275 34.1703 33.958 33.3554 33.3791 32.7098L32.4526 33.5405C32.7929 33.9201 32.983 34.4222 32.983 35.1005H34.2275ZM33.3831 32.7143C32.8588 32.1179 32.1621 31.6449 31.3197 31.2812L30.8264 32.4237C31.5395 32.7316 32.0714 33.1071 32.4486 33.536L33.3831 32.7143ZM31.3221 31.2822C30.5188 30.9314 29.6172 30.6254 28.6199 30.3625L28.3027 31.5658C29.2499 31.8155 30.0894 32.1018 30.824 32.4226L31.3221 31.2822ZM28.625 30.3639L25.4167 29.4889L25.0893 30.6895L28.2976 31.5645L28.625 30.3639ZM25.4165 29.4888C23.308 28.9145 21.6806 28.0819 20.4995 27.0156L19.6656 27.9393C21.0299 29.1709 22.8495 30.0794 25.0895 30.6895L25.4165 29.4888ZM20.5011 27.017C19.3816 25.9993 18.8089 24.6539 18.8089 22.9168H17.5645C17.5645 24.9626 18.2556 26.6575 19.664 27.9378L20.5011 27.017ZM18.8089 22.9168C18.8089 21.4722 19.1981 20.2374 19.9626 19.1862L18.9562 18.4543C18.0237 19.7364 17.5645 21.2326 17.5645 22.9168H18.8089ZM19.9626 19.1862C20.7406 18.1164 21.7994 17.2762 23.1594 16.6709L22.6534 15.534C21.1144 16.219 19.8752 17.1907 18.9562 18.4543L19.9626 19.1862ZM23.1623 16.6696C24.5205 16.0567 26.0665 15.7436 27.8117 15.7436V14.4991C25.9155 14.4991 24.1913 14.84 22.6505 15.5353L23.1623 16.6696ZM27.8117 15.7436C29.5772 15.7436 31.1077 16.0532 32.4176 16.6546L32.9368 15.5237C31.4362 14.8347 29.723 14.4991 27.8117 14.4991V15.7436ZM32.4189 16.6553C33.7461 17.2608 34.7701 18.0836 35.5129 19.1171L36.5234 18.3908C35.6399 17.1616 34.4366 16.2079 32.9355 15.5231L32.4189 16.6553ZM35.5142 19.119C36.2495 20.1339 36.6363 21.3008 36.6688 22.6402L37.9129 22.6101C37.8747 21.0328 37.413 19.6189 36.522 18.3889L35.5142 19.119ZM37.2909 22.0029H33.3401V23.2474H37.2909V22.0029Z" fill="#5B81EC" mask="url(#path-6-outside-1_2253_14190)"/>
</svg>
