<svg width="16" height="16" viewBox="0 0 16 16" fill="none" xmlns="http://www.w3.org/2000/svg">
<g clip-path="url(#clip0_9_1074)">
<path d="M8 16C12.4334 16 16 12.4334 16 8C16 3.56664 12.4334 0 8 0C3.56664 0 0 3.56664 0 8C0 12.4334 3.56664 16 8 16Z" fill="#4CAF50"/>
<g clip-path="url(#clip1_9_1074)">
<mask id="mask0_9_1074" style="mask-type:luminance" maskUnits="userSpaceOnUse" x="3" y="2" width="10" height="11">
<path d="M3 2.99915H13V12.9991H3V2.99915Z" fill="white"/>
</mask>
<g mask="url(#mask0_9_1074)">
<path d="M7.73723 7.27132C7.73723 7.10655 7.75314 6.94554 7.78318 6.78954L7.67187 6.47528H6.96875L7.74281 7.43774C7.73924 7.38272 7.73723 7.32726 7.73723 7.27132Z" fill="white"/>
<path d="M6.01664 6.47527L5.46326 8.0376L6.71976 6.47527H6.01664Z" fill="white"/>
<path d="M7.14888 6.47551L6.87125 7.89355L6.59363 6.47551H7.14888Z" fill="white"/>
<path d="M10.5342 9.80534C10.5436 9.89682 10.5483 9.98911 10.5483 10.0819C10.5483 11.5857 9.32919 12.8048 7.82537 12.8048H6.87222H5.9191C4.41527 12.8048 3.19617 11.5857 3.19617 10.0819C3.19617 9.38477 3.46351 8.71424 3.94312 8.20838L5.78623 6.26442" stroke="white" stroke-width="0.390625" stroke-miterlimit="10" stroke-linecap="round" stroke-linejoin="round"/>
<path d="M6.24524 5.53833L5.93274 4.65606L6.75377 5.53833H6.24524Z" fill="white"/>
<path d="M7.48217 5.53833L7.79467 4.65606L6.97363 5.53833H7.48217Z" fill="white"/>
<path d="M7.06442 5.53833L6.86362 4.51274L6.66284 5.53833H7.06442Z" fill="white"/>
<path d="M7.88893 5.62048C7.91371 5.57208 8.24506 5.0913 8.58563 4.60054C8.83736 4.23779 8.49211 3.76043 8.06877 3.88587C7.88545 3.94019 7.68754 3.87738 7.56906 3.72732L7.32217 3.41455C7.09203 3.123 6.64994 3.123 6.41979 3.41455L6.17291 3.72732C6.05443 3.87738 5.85652 3.94019 5.6732 3.88587C5.24986 3.76043 4.90461 4.23779 5.15635 4.60054C5.49691 5.0913 5.82826 5.57208 5.85305 5.62048" stroke="white" stroke-width="0.390625" stroke-miterlimit="10" stroke-linecap="round" stroke-linejoin="round"/>
<path d="M7.51145 6.47583H6.17688C5.91799 6.47583 5.70813 6.26597 5.70813 6.00708C5.70813 5.74819 5.91799 5.53833 6.17688 5.53833H7.51145C7.77034 5.53833 7.9802 5.74819 7.9802 6.00708C7.9802 6.26597 7.77034 6.47583 7.51145 6.47583Z" stroke="white" stroke-width="0.390625" stroke-miterlimit="10" stroke-linecap="round" stroke-linejoin="round"/>
<path d="M7.36398 9.06563C7.36398 9.06563 7.08359 8.80702 6.65143 8.93721C6.25459 9.05676 6.15604 9.59973 6.4257 9.81123C6.58055 9.93268 6.81354 10.0325 7.12754 10.1435C7.83031 10.392 7.57053 11.3831 6.85564 11.3878C6.57666 11.3897 6.44625 11.372 6.20117 11.2117" stroke="white" stroke-width="0.390625" stroke-miterlimit="10" stroke-linecap="round" stroke-linejoin="round"/>
<path d="M6.85645 8.56653V11.7501" stroke="white" stroke-width="0.390625" stroke-miterlimit="10" stroke-linecap="round" stroke-linejoin="round"/>
<path d="M12.8048 7.27153C12.8048 5.87237 11.6706 4.73813 10.2714 4.73813C8.87228 4.73813 7.73804 5.87237 7.73804 7.27153C7.73804 8.67069 8.87228 9.80493 10.2714 9.80493C11.6706 9.80493 12.8048 8.67069 12.8048 7.27153Z" stroke="white" stroke-width="0.390625" stroke-miterlimit="10" stroke-linecap="round" stroke-linejoin="round"/>
<path d="M10.9176 6.50513V6.2889C10.9176 5.93062 10.6271 5.64017 10.2688 5.64017C9.91057 5.64017 9.62012 5.93062 9.62012 6.2889V6.50513" stroke="white" stroke-width="0.390625" stroke-miterlimit="10" stroke-linecap="round" stroke-linejoin="round"/>
<path d="M10.4853 7.61794V8.00583H10.0556V7.61794C9.99556 7.56099 9.95792 7.48067 9.95792 7.3914C9.95792 7.21882 10.0978 7.0789 10.2704 7.0789C10.443 7.0789 10.5829 7.21882 10.5829 7.3914C10.5829 7.48067 10.5453 7.56099 10.4853 7.61794ZM11.1329 6.50442H9.40298C9.21191 6.50442 9.05701 6.65933 9.05701 6.8504V8.23435C9.05701 8.42542 9.21191 8.58032 9.40298 8.58032H11.1329C11.324 8.58032 11.4789 8.42542 11.4789 8.23435V6.8504C11.4789 6.65933 11.324 6.50442 11.1329 6.50442Z" fill="white"/>
</g>
</g>
</g>
<defs>
<clipPath id="clip0_9_1074">
<rect width="16" height="16" fill="white"/>
</clipPath>
<clipPath id="clip1_9_1074">
<rect width="10" height="10" fill="white" transform="translate(3 3)"/>
</clipPath>
</defs>
</svg>
