<svg width="16" height="16" viewBox="0 0 16 16" fill="none" xmlns="http://www.w3.org/2000/svg">
<g clip-path="url(#clip0_9_1122)">
<rect width="16" height="16" rx="8" fill="white"/>
<rect width="16" height="16" rx="8" fill="#F7931A"/>
<g clip-path="url(#clip1_9_1122)">
<path d="M8.00004 5.50004V12.1667M8.00004 5.50004H6.52683C6.30976 5.50004 6.10158 5.41224 5.94809 5.25596C5.7946 5.09968 5.70837 4.88772 5.70837 4.66671C5.70837 4.44569 5.7946 4.23373 5.94809 4.07745C6.10158 3.92117 6.30976 3.83337 6.52683 3.83337C7.67266 3.83337 8.00004 5.50004 8.00004 5.50004ZM8.00004 5.50004H9.47326C9.69032 5.50004 9.8985 5.41224 10.052 5.25596C10.2055 5.09968 10.2917 4.88772 10.2917 4.66671C10.2917 4.44569 10.2055 4.23373 10.052 4.07745C9.8985 3.92117 9.69032 3.83337 9.47326 3.83337C8.32742 3.83337 8.00004 5.50004 8.00004 5.50004ZM11.3334 7.58337V10.8334C11.3334 11.3001 11.3334 11.5334 11.2425 11.7117C11.1627 11.8685 11.0352 11.996 10.8784 12.0759C10.7001 12.1667 10.4668 12.1667 10 12.1667L6.00004 12.1667C5.53333 12.1667 5.29998 12.1667 5.12172 12.0759C4.96491 11.996 4.83743 11.8685 4.75754 11.7117C4.66671 11.5334 4.66671 11.3001 4.66671 10.8334V7.58337M3.83337 6.16671L3.83337 6.91671C3.83337 7.15006 3.83337 7.26674 3.87879 7.35587C3.91874 7.43427 3.98248 7.49801 4.06088 7.53796C4.15001 7.58337 4.26669 7.58337 4.50004 7.58337L11.5 7.58337C11.7334 7.58337 11.8501 7.58337 11.9392 7.53796C12.0176 7.49801 12.0813 7.43427 12.1213 7.35587C12.1667 7.26674 12.1667 7.15006 12.1667 6.91671V6.16671C12.1667 5.93335 12.1667 5.81667 12.1213 5.72754C12.0813 5.64914 12.0176 5.5854 11.9392 5.54545C11.8501 5.50004 11.7334 5.50004 11.5 5.50004L4.50004 5.50004C4.26669 5.50004 4.15001 5.50004 4.06088 5.54545C3.98248 5.5854 3.91874 5.64914 3.87879 5.72754C3.83337 5.81667 3.83337 5.93335 3.83337 6.16671Z" stroke="white" stroke-linecap="round" stroke-linejoin="round"/>
</g>
</g>
<defs>
<clipPath id="clip0_9_1122">
<rect width="16" height="16" rx="8" fill="white"/>
</clipPath>
<clipPath id="clip1_9_1122">
<rect width="10" height="10" fill="white" transform="translate(3 3)"/>
</clipPath>
</defs>
</svg>
