<svg width="16" height="16" viewBox="0 0 16 16" fill="none" xmlns="http://www.w3.org/2000/svg">
<g clip-path="url(#clip0_9_1113)">
<path d="M8 16C12.4334 16 16 12.4334 16 8C16 3.56664 12.4334 0 8 0C3.56664 0 0 3.56664 0 8C0 12.4334 3.56664 16 8 16Z" fill="#DD3072"/>
<path d="M10.9167 5.08337L5.08337 10.9167M6.12504 5.70837C6.12504 5.93849 5.93849 6.12504 5.70837 6.12504C5.47826 6.12504 5.29171 5.93849 5.29171 5.70837C5.29171 5.47826 5.47826 5.29171 5.70837 5.29171C5.93849 5.29171 6.12504 5.47826 6.12504 5.70837ZM10.7084 10.2917C10.7084 10.5218 10.5218 10.7084 10.2917 10.7084C10.0616 10.7084 9.87504 10.5218 9.87504 10.2917C9.87504 10.0616 10.0616 9.87504 10.2917 9.87504C10.5218 9.87504 10.7084 10.0616 10.7084 10.2917Z" stroke="white" stroke-linecap="round" stroke-linejoin="round"/>
</g>
<defs>
<clipPath id="clip0_9_1113">
<rect width="16" height="16" fill="white"/>
</clipPath>
</defs>
</svg>
